<svg width="148" height="148" viewBox="0 0 148 148" fill="none" xmlns="http://www.w3.org/2000/svg">
<path d="M148 113.19H0V113.264H148V113.19Z" fill="#EBEBEB"/>
<path d="M93.4383 115.206H85.9022V115.28H93.4383V115.206Z" fill="#EBEBEB"/>
<path d="M134.81 116.808H116.953V116.882H134.81V116.808Z" fill="#EBEBEB"/>
<path d="M84.2979 115.242H65.8482V115.316H84.2979V115.242Z" fill="#EBEBEB"/>
<path d="M53.8838 117.456H50.024V117.53H53.8838V117.456Z" fill="#EBEBEB"/>
<path d="M75.2106 117.456H57.6342V117.53H75.2106V117.456Z" fill="#EBEBEB"/>
<path d="M26.9094 116.207H15.5282V116.281H26.9094V116.207Z" fill="#EBEBEB"/>
<path d="M70.152 99.9891H12.9974C12.5496 99.9883 12.1205 99.8099 11.8041 99.493C11.4878 99.1761 11.3101 98.7467 11.3102 98.2989V17.9556C11.314 17.5105 11.4934 17.0848 11.8093 16.7711C12.1252 16.4574 12.5522 16.281 12.9974 16.2803H70.152C70.6003 16.2803 71.0302 16.4583 71.3471 16.7753C71.6641 17.0923 71.8422 17.5222 71.8422 17.9704V98.2989C71.8422 98.7472 71.6641 99.1771 71.3471 99.494C71.0302 99.811 70.6003 99.9891 70.152 99.9891ZM12.9974 16.3395C12.5692 16.3403 12.1589 16.5109 11.8565 16.8139C11.554 17.1169 11.3841 17.5275 11.3842 17.9556V98.2989C11.3841 98.727 11.554 99.1377 11.8565 99.4407C12.1589 99.7437 12.5692 99.9143 12.9974 99.9151H70.152C70.5804 99.9143 70.991 99.7438 71.2939 99.4408C71.5968 99.1379 71.7674 98.7273 71.7682 98.2989V17.9556C71.7674 17.5272 71.5968 17.1166 71.2939 16.8137C70.991 16.5108 70.5804 16.3403 70.152 16.3395H12.9974Z" fill="#EBEBEB"/>
<path d="M134.18 99.9891H77.0222C76.5741 99.9883 76.1447 99.81 75.8279 99.4932C75.5111 99.1764 75.3328 98.7469 75.332 98.2989V17.9556C75.3367 17.5102 75.5167 17.0845 75.8331 16.7709C76.1495 16.4573 76.5767 16.281 77.0222 16.2803H134.18C134.624 16.2818 135.051 16.4585 135.366 16.7721C135.681 17.0858 135.86 17.511 135.864 17.9556V98.2989C135.864 98.7461 135.687 99.1751 135.371 99.4919C135.055 99.8087 134.627 99.9875 134.18 99.9891ZM77.0222 16.3395C76.5938 16.3403 76.1831 16.5108 75.8802 16.8137C75.5773 17.1166 75.4068 17.5272 75.406 17.9556V98.2989C75.4068 98.7273 75.5773 99.1379 75.8802 99.4408C76.1831 99.7438 76.5938 99.9143 77.0222 99.9151H134.18C134.608 99.9143 135.019 99.7438 135.322 99.4408C135.625 99.1379 135.795 98.7273 135.796 98.2989V17.9556C135.795 17.5272 135.625 17.1166 135.322 16.8137C135.019 16.5108 134.608 16.3403 134.18 16.3395H77.0222Z" fill="#EBEBEB"/>
<path d="M35.7035 75.9453C35.7035 75.9453 35.5733 79.7933 30.488 79.7933C25.4027 79.7933 25.2725 75.9453 25.2725 75.9453H35.7035Z" fill="#F0F0F0"/>
<path d="M48.0319 75.9453C48.0319 75.9453 47.8987 79.7933 42.8164 79.7933C37.7341 79.7933 37.6009 75.9453 37.6009 75.9453H48.0319Z" fill="#F0F0F0"/>
<path d="M32.7879 82.333H21.1166V110.568H32.7879V82.333Z" fill="#F0F0F0"/>
<path d="M61.1003 110.568H23.3574V113.191H61.1003V110.568Z" fill="#F0F0F0"/>
<path d="M32.7879 110.571H63.341V82.3358H32.7879V110.571Z" fill="#F5F5F5"/>
<path d="M37.3789 94.457H58.7531V85.7694H37.3789V94.457Z" fill="#F0F0F0"/>
<path d="M37.3789 105.619H58.7531V96.9315H37.3789V105.619Z" fill="#F0F0F0"/>
<path d="M64.895 79.8018H32.7879V82.3326H64.895V79.8018Z" fill="#F0F0F0"/>
<path d="M19.4857 82.3359H32.7879V79.8051H19.4857V82.3359Z" fill="#E6E6E6"/>
<path d="M116.062 22.4844H56.5804V65.1853H116.062V22.4844Z" fill="#FAFAFA"/>
<path d="M59.9637 65.1853L75.0952 22.4844H86.4498L71.3182 65.1853H59.9637Z" fill="white"/>
<path d="M90.4961 65.1853L105.625 22.4844H109.766L94.6371 65.1853H90.4961Z" fill="white"/>
<path d="M118.897 21.0166H53.7447C53.6746 21.0166 53.6073 21.0443 53.5574 21.0936C53.5075 21.1429 53.4791 21.2099 53.4783 21.28C53.4783 21.315 53.4852 21.3497 53.4986 21.382C53.512 21.4143 53.5316 21.4437 53.5564 21.4684C53.5811 21.4932 53.6105 21.5128 53.6428 21.5262C53.6751 21.5396 53.7098 21.5464 53.7447 21.5464H118.897C118.932 21.5464 118.967 21.5396 118.999 21.5262C119.032 21.5128 119.061 21.4932 119.086 21.4684C119.11 21.4437 119.13 21.4143 119.143 21.382C119.157 21.3497 119.164 21.315 119.164 21.28C119.163 21.2099 119.135 21.1429 119.085 21.0936C119.035 21.0443 118.967 21.0166 118.897 21.0166Z" fill="#E0E0E0"/>
<path d="M85.9703 65.2773H86.6747V22.3929H85.9703V65.2773Z" fill="#F0F0F0"/>
<path d="M86.6717 65.2773H87.024V22.3929H86.6717V65.2773Z" fill="#E0E0E0"/>
<path d="M56.1689 43.4859V44.1904L116.473 44.1904V43.4859L56.1689 43.4859Z" fill="#F0F0F0"/>
<path d="M116.473 64.8926V22.0732H56.1689V64.8926V65.5971H116.473V64.8926ZM56.8734 64.8926V22.7925H115.777V64.8926H56.8734Z" fill="#F0F0F0"/>
<path d="M116.473 65.5967H116.825V22.0728H116.473V65.5967Z" fill="#E0E0E0"/>
<path opacity="0.5" d="M107.729 20.3711V70.5165H120.46L118.125 20.3711H107.729Z" fill="#EBEBEB"/>
<path opacity="0.5" d="M65.2651 20.3711V70.5165H52.5341L54.8695 20.3711H65.2651Z" fill="#EBEBEB"/>
<path d="M135.879 77.1582H73.3754V87.462H135.879V77.1582Z" fill="#EBEBEB"/>
<path d="M135.124 77.7715H112.131V86.8498H135.124V77.7715Z" fill="#F5F5F5"/>
<path d="M111.314 77.7715H88.3205V86.8498H111.314V77.7715Z" fill="#F5F5F5"/>
<path d="M86.059 113.19H84.6797L87.6308 87.4619H89.0102L86.059 113.19Z" fill="#F5F5F5"/>
<path d="M73.9023 113.19H72.52L75.4711 87.4619H76.8535L73.9023 113.19Z" fill="#F5F5F5"/>
<path d="M123.192 113.19H124.575L121.623 87.4619H120.241L123.192 113.19Z" fill="#F5F5F5"/>
<path d="M135.349 113.19H136.731L133.78 87.4619H132.398L135.349 113.19Z" fill="#F5F5F5"/>
<path d="M103.532 65.8096H98.6982L96.6854 77.1582H101.519L103.532 65.8096Z" fill="#E0E0E0"/>
<path d="M114.283 55.9443H87.249L88.0718 72.3901H115.106L114.283 55.9443Z" fill="#E6E6E6"/>
<path d="M113.661 56.335H87.909L88.6934 71.9993H114.445L113.661 56.335Z" fill="#FAFAFA"/>
<path d="M121.105 75.7852H121.629C121.747 75.7852 121.842 75.6897 121.842 75.572V75.5602C121.842 75.4425 121.747 75.3471 121.629 75.3471H121.105C120.988 75.3471 120.892 75.4425 120.892 75.5602V75.572C120.892 75.6897 120.988 75.7852 121.105 75.7852Z" fill="#E0E0E0"/>
<path d="M131.391 56.7548L125.531 62.6156C124.753 61.8384 124.317 60.7843 124.317 59.6852C124.317 58.5861 124.753 57.532 125.531 56.7548C126.308 55.9776 127.362 55.541 128.461 55.541C129.56 55.541 130.614 55.9776 131.391 56.7548Z" fill="#E6E6E6"/>
<path d="M123.251 57.424L125.537 59.7091L128.497 56.7491L126.211 54.4669C126.017 54.2722 125.787 54.1177 125.533 54.0122C125.279 53.9068 125.006 53.8525 124.731 53.8525C124.456 53.8525 124.184 53.9068 123.93 54.0122C123.676 54.1177 123.446 54.2722 123.251 54.4669C123.057 54.661 122.903 54.8915 122.798 55.1452C122.693 55.3989 122.639 55.6708 122.639 55.9455C122.639 56.2201 122.693 56.492 122.798 56.7457C122.903 56.9994 123.057 57.2299 123.251 57.424Z" fill="#E6E6E6"/>
<path d="M113.15 63.8341L113.5 64.1836L123.253 54.43L122.904 54.0805L113.15 63.8341Z" fill="#E6E6E6"/>
<path d="M120.105 76.0471L120.53 75.7949L113.494 63.9308L113.069 64.1829L120.105 76.0471Z" fill="#E6E6E6"/>
<path d="M123.251 55.3319C123.722 55.3319 124.104 54.9502 124.104 54.4794C124.104 54.0086 123.722 53.627 123.251 53.627C122.781 53.627 122.399 54.0086 122.399 54.4794C122.399 54.9502 122.781 55.3319 123.251 55.3319Z" fill="#E6E6E6"/>
<path d="M113.315 64.5639C113.616 64.5639 113.859 64.32 113.859 64.0192C113.859 63.7185 113.616 63.4746 113.315 63.4746C113.014 63.4746 112.77 63.7185 112.77 64.0192C112.77 64.32 113.014 64.5639 113.315 64.5639Z" fill="#E6E6E6"/>
<path d="M118.178 75.5635H122.195L122.511 77.1589H117.864L118.178 75.5635Z" fill="#E6E6E6"/>
<path d="M74 126.558C105.696 126.558 131.391 125.058 131.391 123.207C131.391 121.357 105.696 119.856 74 119.856C42.3036 119.856 16.6086 121.357 16.6086 123.207C16.6086 125.058 42.3036 126.558 74 126.558Z" fill="#F5F5F5"/>
<path d="M101.62 74.5302H31.0089C30.0614 74.523 29.1534 74.149 28.4757 73.4867C27.798 72.8244 27.4031 71.9253 27.3741 70.9782L26.4476 30.9827C26.4357 30.52 26.5167 30.0596 26.6858 29.6287C26.8549 29.1978 27.1086 28.8052 27.4321 28.4741C27.7555 28.143 28.142 27.88 28.5687 27.7008C28.9955 27.5216 29.4538 27.4297 29.9167 27.4307H100.528C101.475 27.4379 102.383 27.8119 103.061 28.4742C103.738 29.1364 104.133 30.0355 104.162 30.9827L105.08 70.9782C105.092 71.4402 105.011 71.8998 104.843 72.3301C104.674 72.7604 104.421 73.1526 104.099 73.4836C103.776 73.8146 103.391 74.0777 102.965 74.2575C102.539 74.4372 102.082 74.5299 101.62 74.5302Z" fill="#00CCCC"/>
<path d="M101.62 74.6778H31.0089C30.0237 74.6705 29.0796 74.2816 28.3753 73.5926C27.6709 72.9037 27.2611 71.9685 27.232 70.9837L26.2996 30.9852C26.2869 30.5027 26.3712 30.0226 26.5474 29.5732C26.7236 29.1239 26.9882 28.7144 27.3254 28.3691C27.6627 28.0239 28.0658 27.7498 28.5109 27.5631C28.956 27.3764 29.434 27.2809 29.9167 27.2822H100.527C101.514 27.288 102.46 27.6767 103.166 28.3664C103.872 29.0561 104.282 29.9929 104.31 30.9793L105.237 70.9748C105.25 71.4573 105.165 71.9374 104.989 72.3868C104.813 72.8361 104.548 73.2456 104.211 73.5909C103.874 73.9361 103.471 74.2102 103.026 74.3969C102.58 74.5836 102.102 74.6791 101.62 74.6778ZM29.9167 27.5782C29.4734 27.5769 29.0344 27.6645 28.6256 27.836C28.2168 28.0074 27.8466 28.2592 27.5368 28.5764C27.2271 28.8935 26.9842 29.2696 26.8226 29.6824C26.6609 30.0951 26.5837 30.5361 26.5956 30.9793L27.528 70.9748C27.5541 71.8839 27.9323 72.7474 28.5828 73.383C29.2334 74.0187 30.1054 74.3768 31.0149 74.3818H101.62C102.063 74.3827 102.501 74.2949 102.91 74.1234C103.318 73.952 103.688 73.7005 103.998 73.3838C104.307 73.067 104.55 72.6914 104.712 72.2792C104.874 71.867 104.952 71.4265 104.941 70.9837L104.014 30.9852C103.988 30.0761 103.61 29.2126 102.96 28.577C102.309 27.9413 101.437 27.5832 100.527 27.5782H29.9167Z" fill="#00CCCC"/>
<path d="M102.212 74.5302H31.601C30.6534 74.523 29.7454 74.149 29.0677 73.4867C28.39 72.8244 27.9951 71.9253 27.9661 70.9782L27.0396 30.9827C27.0277 30.52 27.1087 30.0596 27.2778 29.6287C27.4469 29.1978 27.7007 28.8052 28.0241 28.4741C28.3475 28.143 28.734 27.88 29.1607 27.7008C29.5875 27.5216 30.0459 27.4297 30.5087 27.4307H101.12C102.067 27.4379 102.975 27.8119 103.653 28.4742C104.33 29.1364 104.725 30.0355 104.754 30.9827L105.672 70.9782C105.684 71.4402 105.603 71.8998 105.435 72.3301C105.266 72.7604 105.013 73.1526 104.691 73.4836C104.368 73.8146 103.983 74.0777 103.557 74.2575C103.131 74.4372 102.674 74.5299 102.212 74.5302Z" fill="#F5F5F5"/>
<path d="M102.212 74.6778H31.601C30.6157 74.6705 29.6717 74.2816 28.9673 73.5926C28.2629 72.9037 27.8531 71.9685 27.824 70.9837L26.8916 30.9852C26.8789 30.5027 26.9632 30.0226 27.1394 29.5732C27.3156 29.1239 27.5802 28.7144 27.9174 28.3691C28.2547 28.0239 28.6578 27.7498 29.1029 27.5631C29.548 27.3764 30.0261 27.2809 30.5087 27.2822H101.12C102.106 27.288 103.052 27.6767 103.758 28.3664C104.464 29.0561 104.874 29.9929 104.902 30.9793L105.829 70.9748C105.842 71.4573 105.757 71.9374 105.581 72.3868C105.405 72.8361 105.14 73.2456 104.803 73.5909C104.466 73.9361 104.063 74.2102 103.618 74.3969C103.172 74.5836 102.694 74.6791 102.212 74.6778ZM30.5087 27.5782C30.0654 27.5769 29.6264 27.6645 29.2176 27.836C28.8088 28.0074 28.4386 28.2592 28.1289 28.5764C27.8192 28.8935 27.5763 29.2696 27.4146 29.6824C27.2529 30.0951 27.1757 30.5361 27.1876 30.9793L28.12 70.9748C28.1461 71.8839 28.5243 72.7474 29.1748 73.383C29.8254 74.0187 30.6974 74.3768 31.6069 74.3818H102.212C102.655 74.3827 103.093 74.2949 103.502 74.1234C103.91 73.952 104.28 73.7005 104.59 73.3838C104.899 73.067 105.142 72.6914 105.304 72.2792C105.466 71.867 105.544 71.4265 105.533 70.9837L104.606 30.9852C104.58 30.0761 104.202 29.2126 103.552 28.577C102.901 27.9413 102.029 27.5832 101.12 27.5782H30.5087Z" fill="#00CCCC"/>
<path d="M40.9161 38.6218L36.1416 34.1818C38.4001 31.7428 42.4138 31.7428 45.0216 34.1818C45.8553 34.9563 46.4856 35.924 46.8568 36.9997L40.9161 38.6218Z" fill="#E0E0E0"/>
<path opacity="0.2" d="M39.9215 38.7194L33.7055 39.267C33.557 38.3668 33.6096 37.4449 33.8594 36.5674C34.1067 35.7127 34.5495 34.9273 35.1529 34.2734L39.9215 38.7194Z" fill="#00CCCC"/>
<path d="M40.9161 39.0723L37.4706 42.7959C37.0061 42.3628 36.6152 41.8569 36.3133 41.2982C36.0166 40.7441 35.8164 40.1435 35.7213 39.5222L40.9161 39.0723Z" fill="white"/>
<path opacity="0.6" d="M41.2505 39.5782L47.2031 37.9502C47.5733 38.9751 47.6587 40.0812 47.4502 41.1507C47.2417 42.2203 46.7471 43.2133 46.0191 44.0241C43.7606 46.4632 39.7469 46.4632 37.1391 44.0241L41.2505 39.5782Z" fill="#FF9999"/>
<path opacity="0.2" d="M57.2701 38.6218L52.4956 34.1818C54.7541 31.7428 58.7678 31.7428 61.3756 34.1818C62.2101 34.9562 62.8414 35.9239 63.2137 36.9997L57.2701 38.6218Z" fill="#FF9999"/>
<path d="M56.2725 38.7194L50.0565 39.267C49.9075 38.3666 49.9611 37.4444 50.2134 36.5674C50.4584 35.7124 50.9004 34.9267 51.504 34.2734L56.2725 38.7194Z" fill="#E0E0E0"/>
<path opacity="0.6" d="M57.2701 39.0723L53.8217 42.7959C53.3572 42.3628 52.9663 41.8569 52.6643 41.2982C52.3676 40.7441 52.1674 40.1435 52.0723 39.5222L57.2701 39.0723Z" fill="#00CCCC"/>
<path d="M57.6016 39.5782L63.5541 37.9502C63.9253 38.9749 64.0112 40.0812 63.8027 41.151C63.5942 42.2208 63.099 43.2138 62.3701 44.0241C60.1117 46.4632 56.0979 46.4632 53.4901 44.0241L57.6016 39.5782Z" fill="white"/>
<g opacity="0.3">
<path d="M31.6513 68.7808H31.6365C31.5978 68.7756 31.5625 68.7559 31.5377 68.7257C31.513 68.6954 31.5007 68.6569 31.5033 68.618C31.8407 65.1311 34.0015 61.7892 37.2842 59.6817C40.1287 57.8554 43.7429 56.9319 47.7596 57.0177C48.7897 57.0384 49.8316 57.1243 50.8469 57.2101C52.3872 57.3731 53.9372 57.4265 55.4852 57.37C57.2168 57.2664 60.3958 56.7365 62.2192 54.3389C62.833 53.451 63.3304 52.4881 63.6992 51.4736C64.1906 50.2896 64.6967 49.0435 65.6054 48.0904C66.8131 46.8205 68.669 46.0983 71.1258 45.9414C72.3934 45.8836 73.6632 45.8954 74.9294 45.9769C76.0217 46.0272 77.1524 46.0805 78.2624 46.0361C80.2219 45.9592 82.9303 45.4885 84.6974 43.6681C85.5085 42.8393 86.0709 41.7796 86.6155 40.7555C86.9115 40.2227 87.1927 39.6692 87.5213 39.1482C88.6457 37.3754 90.2073 35.9219 92.056 34.9272C92.0729 34.9179 92.0914 34.9121 92.1106 34.91C92.1297 34.908 92.1491 34.9097 92.1676 34.9152C92.186 34.9208 92.2032 34.9299 92.2181 34.9421C92.233 34.9543 92.2453 34.9694 92.2543 34.9864C92.2725 35.0211 92.2764 35.0615 92.2654 35.099C92.2543 35.1366 92.2291 35.1684 92.1951 35.1877C90.3828 36.1634 88.8533 37.5909 87.7551 39.3317C87.4325 39.8438 87.1394 40.3914 86.8671 40.9212C86.3136 41.9632 85.7423 43.0406 84.8987 43.902C83.4454 45.382 81.1513 46.2374 78.2624 46.3499C77.1435 46.3943 76.0069 46.3499 74.9087 46.2907C73.6523 46.2107 72.3924 46.1989 71.1347 46.2552C68.7667 46.4061 66.9641 47.0988 65.8067 48.3272C64.9365 49.2388 64.4422 50.4495 63.9597 51.6187C63.5841 52.6576 63.0757 53.6436 62.4471 54.552C60.5498 57.0414 57.276 57.592 55.4911 57.6985C53.9303 57.7558 52.3674 57.7013 50.8143 57.5357C49.8079 57.4528 48.766 57.367 47.7448 57.3463C43.7991 57.2634 40.2294 58.1721 37.4351 59.9659C34.2294 62.0379 32.1071 65.2939 31.7904 68.6831C31.7794 68.7112 31.7603 68.7355 31.7355 68.7529C31.7108 68.7702 31.6815 68.7799 31.6513 68.7808Z" fill="#00CCCC"/>
<path d="M92.6746 36.3898H92.648C92.6104 36.3794 92.5785 36.3546 92.5591 36.3208C92.5397 36.287 92.5344 36.2469 92.5444 36.2092L92.867 34.9512C92.903 34.8079 92.9495 34.6674 93.0061 34.5309C93.009 34.526 93.0105 34.5204 93.0105 34.5146C93.0105 34.5089 93.009 34.5033 93.0061 34.4984C92.0707 34.5227 91.1399 34.6377 90.2267 34.8417C90.2078 34.8461 90.1883 34.8466 90.1692 34.8432C90.1501 34.8399 90.1319 34.8328 90.1157 34.8223C90.0994 34.8118 90.0854 34.7982 90.0744 34.7822C90.0635 34.7662 90.0559 34.7482 90.0521 34.7292C90.0477 34.7104 90.0472 34.6908 90.0505 34.6718C90.0539 34.6527 90.061 34.6345 90.0715 34.6182C90.082 34.6019 90.0956 34.5879 90.1116 34.577C90.1276 34.5661 90.1456 34.5585 90.1645 34.5546C91.0887 34.3475 92.03 34.2266 92.9765 34.1935C93.0296 34.192 93.0823 34.2037 93.1298 34.2274C93.1773 34.2512 93.2182 34.2863 93.2489 34.3296C93.2807 34.3754 93.3004 34.4284 93.3061 34.4838C93.3118 34.5392 93.3033 34.5951 93.2814 34.6464C93.2315 34.7697 93.19 34.8963 93.1571 35.0252L92.8315 36.2832C92.8225 36.3169 92.8017 36.3462 92.7729 36.3657C92.7441 36.3853 92.7092 36.3938 92.6746 36.3898Z" fill="#00CCCC"/>
</g>
<path d="M104.914 33.1197C104.914 33.1197 100.77 31.3022 99.5537 36.426C98.568 40.5522 96.496 42.0973 96.496 42.0973C96.496 42.0973 103.822 44.9271 107.907 41.6089L104.914 33.1197Z" fill="#263238"/>
<path d="M100.098 50.3708C99.9474 50.7793 99.8023 51.1286 99.6425 51.4956C99.4826 51.8627 99.3169 52.2149 99.1482 52.5701C98.8078 53.2805 98.423 53.9672 98.0322 54.6421C97.2401 56.0199 96.3215 57.321 95.2883 58.5286L95.09 58.7535C95.019 58.8335 94.9835 58.8838 94.8355 59.0347C94.5604 59.3115 94.2206 59.515 93.8468 59.6267C93.505 59.7228 93.1464 59.743 92.796 59.6859C92.5167 59.6419 92.2441 59.5623 91.985 59.4491C91.5633 59.2605 91.1658 59.022 90.801 58.7387C90.4684 58.4832 90.1502 58.2095 89.8479 57.9188C88.7271 56.8014 87.7398 55.5578 86.9056 54.2129L87.9564 53.4196C88.9576 54.4821 90.0339 55.4713 91.1769 56.3796C91.6688 56.7816 92.22 57.1051 92.8108 57.3387C93.0476 57.4186 93.2104 57.3831 93.169 57.3712C93.1275 57.3594 93.1305 57.3712 93.1394 57.3712C93.1482 57.3712 93.2045 57.2854 93.2519 57.2203L93.4146 57.0071C94.2804 55.8491 95.0619 54.6304 95.753 53.3604C96.1023 52.7211 96.4279 52.0669 96.7446 51.4098C96.9015 51.0812 97.0555 50.7527 97.2035 50.4211C97.3515 50.0896 97.4995 49.7433 97.6179 49.4443L100.098 50.3708Z" fill="#FFC3BD"/>
<path d="M99.2547 46.8099C98.1477 46.7684 96.2 50.7941 96.2 50.7941L99.0801 54.2839C99.0801 54.2839 102.437 50.0718 101.978 48.7102C101.487 47.2924 100.865 46.8661 99.2547 46.8099Z" fill="#263238"/>
<path opacity="0.2" d="M99.0712 47.7803L97.5735 52.4719L98.9232 54.1028L99.0712 47.7803Z" fill="black"/>
<path d="M87.7196 54.6946L84.656 53.9191L86.728 52.2822C86.728 52.2822 88.2672 52.9305 88.3649 54.0079L87.7196 54.6946Z" fill="#FFC3BD"/>
<path d="M83.2204 52.6049L84.8099 51.4209L86.7162 52.2823L84.6412 53.9191L83.2204 52.6049Z" fill="#FFC3BD"/>
<path d="M107.072 119.061H104.473L104.6 113.04H107.199L107.072 119.061Z" fill="#FFC3BD"/>
<path d="M104.222 118.759H107.152C107.202 118.758 107.251 118.776 107.289 118.809C107.327 118.841 107.352 118.887 107.359 118.936L107.691 121.248C107.697 121.307 107.691 121.366 107.673 121.422C107.655 121.477 107.625 121.529 107.585 121.572C107.546 121.616 107.498 121.651 107.444 121.674C107.39 121.698 107.332 121.71 107.273 121.71C106.255 121.692 105.764 121.633 104.479 121.633C103.689 121.633 101.421 121.716 100.335 121.716C99.2488 121.716 99.1867 120.635 99.6395 120.532C101.676 120.094 103.115 119.49 103.801 118.913C103.92 118.816 104.068 118.761 104.222 118.759Z" fill="#263238"/>
<g opacity="0.2">
<path d="M104.6 113.04L104.535 116.145H107.134L107.202 113.04H104.6Z" fill="black"/>
</g>
<path d="M98.2098 48.0977C98.1536 49.7434 98.4378 53.5826 100.166 62.5188L110.722 62.205C110.426 57.916 110.334 55.2668 112.125 46.3898C110.638 46.129 109.134 45.9757 107.626 45.931C106.026 45.8649 104.423 45.9133 102.83 46.076C101.611 46.224 100.294 46.4756 99.4294 46.668C99.0961 46.7368 98.7952 46.9147 98.5743 47.1736C98.3535 47.4325 98.2252 47.7577 98.2098 48.0977Z" fill="#263238"/>
<path d="M106.989 40.5518C106.732 42.1028 106.516 44.9385 107.626 45.933C106.791 47.2466 105.478 48.1831 103.964 48.5438C101.531 47.3094 102.83 46.0751 102.83 46.0751C104.538 45.6134 104.455 44.3376 104.121 43.1477L106.989 40.5518Z" fill="#FFC3BD"/>
<path d="M103.964 48.5444L104.278 47.9287L105.968 48.3106L103.964 48.5444Z" fill="#E0E0E0"/>
<path d="M104.278 47.9288C104.822 47.6802 107.333 46.0463 107.43 45.5342C107.629 45.7503 108.691 45.8154 108.691 45.8154C108.691 45.8154 108.055 48.7369 106.823 50.874C105.983 48.9678 105.184 48.5208 104.278 47.9288Z" fill="white"/>
<path d="M103.964 48.5444L103.822 47.9287L102.786 48.0027L103.964 48.5444Z" fill="#E0E0E0"/>
<path d="M103.822 47.9281C102.984 47.3716 103.189 46.2083 103.271 45.6992C103.073 45.9123 102.01 45.9775 102.01 45.9775C102.01 45.9775 100.507 48.7362 101.741 50.8733C102.324 49.34 102.916 48.5201 103.822 47.9281Z" fill="white"/>
<path opacity="0.2" d="M105.82 41.6094L104.124 43.1486C104.205 43.4254 104.262 43.7086 104.296 43.9951C104.95 43.8797 105.832 43.1308 105.879 42.4411C105.91 42.1626 105.89 41.8807 105.82 41.6094Z" fill="black"/>
<path d="M107.833 37.0004C107.8 39.5816 107.833 40.6738 106.607 42.0561C104.748 44.1281 101.575 43.5361 100.847 40.9964C100.184 38.7143 100.347 34.8781 102.816 33.7296C103.359 33.474 103.958 33.3616 104.557 33.4029C105.155 33.4442 105.734 33.6379 106.236 33.9657C106.739 34.2935 107.15 34.7443 107.429 35.2755C107.709 35.8067 107.848 36.4005 107.833 37.0004Z" fill="#FFC3BD"/>
<path d="M107.623 38.2407L104.381 38.0809C104.372 38.0805 104.362 38.0782 104.353 38.0741C104.344 38.07 104.337 38.0643 104.33 38.0571C104.323 38.05 104.318 38.0416 104.315 38.0325C104.312 38.0233 104.31 38.0136 104.31 38.0039C104.311 37.9939 104.313 37.9841 104.317 37.9751C104.322 37.966 104.328 37.9579 104.335 37.9513C104.343 37.9447 104.351 37.9396 104.361 37.9364C104.37 37.9333 104.38 37.9321 104.39 37.9329L107.632 38.0927C107.641 38.0934 107.651 38.0961 107.659 38.1005C107.668 38.105 107.676 38.1111 107.682 38.1185C107.689 38.1259 107.693 38.1345 107.696 38.1438C107.699 38.1531 107.7 38.1629 107.7 38.1726C107.699 38.1822 107.697 38.1916 107.693 38.2003C107.689 38.209 107.683 38.2168 107.676 38.2231C107.668 38.2295 107.66 38.2343 107.651 38.2373C107.642 38.2404 107.632 38.2415 107.623 38.2407Z" fill="white"/>
<path d="M100.166 62.518C100.166 62.518 101.501 81.832 102.238 89.7263C103.011 97.9403 104.014 115.543 104.014 115.543H107.528C107.528 115.543 108.262 97.6413 107.984 89.5398C107.688 80.7101 107.874 62.29 107.874 62.29L100.166 62.518Z" fill="#263238"/>
<path d="M107.854 115.668H103.73L103.425 114.354L108.046 114.191L107.854 115.668Z" fill="#00CCCC"/>
<path opacity="0.2" d="M107.848 69.1875C107.421 68.7139 106.96 68.9596 106.433 70.3094C104.677 74.9151 106.548 82.2648 107.913 86.4976C107.821 81.2288 107.824 74.2965 107.848 69.1875Z" fill="black"/>
<path d="M103.6 38.1133C103.6 38.3234 103.505 38.4981 103.369 38.504C103.233 38.5099 103.115 38.3471 103.103 38.137C103.091 37.9268 103.194 37.7522 103.334 37.7463C103.473 37.7403 103.6 37.9031 103.6 38.1133Z" fill="#263238"/>
<path d="M101.232 38.1846C101.232 38.3948 101.137 38.5694 101.001 38.5753C100.865 38.5812 100.747 38.4184 100.735 38.2083C100.723 37.9981 100.826 37.8235 100.966 37.8176C101.105 37.8116 101.232 37.9596 101.232 38.1846Z" fill="#263238"/>
<path d="M101.022 37.8108L100.513 37.6895C100.513 37.6895 100.791 38.0713 101.022 37.8108Z" fill="#263238"/>
<path d="M102.144 38.3408C101.981 38.8278 101.752 39.29 101.463 39.7143C101.573 39.7865 101.698 39.8332 101.829 39.8511C101.959 39.869 102.092 39.8577 102.218 39.8179L102.144 38.3408Z" fill="#ED847E"/>
<path d="M103.399 40.5821C103.301 40.6025 103.202 40.6154 103.103 40.6206C103.095 40.621 103.086 40.6198 103.079 40.617C103.071 40.6143 103.064 40.61 103.058 40.6045C103.052 40.599 103.047 40.5924 103.043 40.585C103.04 40.5776 103.038 40.5696 103.038 40.5614C103.038 40.5456 103.045 40.5306 103.056 40.5192C103.066 40.5077 103.081 40.5007 103.097 40.4992C103.358 40.4927 103.614 40.4243 103.843 40.2998C104.072 40.1753 104.269 39.9982 104.417 39.7829C104.421 39.7759 104.427 39.7698 104.433 39.7649C104.44 39.7601 104.448 39.7566 104.456 39.7547C104.464 39.7527 104.472 39.7524 104.48 39.7537C104.488 39.755 104.496 39.7579 104.503 39.7622C104.51 39.7662 104.516 39.7715 104.521 39.7778C104.525 39.7842 104.529 39.7915 104.531 39.7992C104.533 39.807 104.533 39.815 104.532 39.8229C104.531 39.8308 104.528 39.8383 104.524 39.8451C104.395 40.0373 104.23 40.2017 104.036 40.3283C103.843 40.455 103.626 40.5413 103.399 40.5821Z" fill="#263238"/>
<path d="M108.632 39.3271C108.557 39.5622 108.436 39.7803 108.277 39.9687C108.117 40.1572 107.922 40.3123 107.703 40.4252C107.111 40.7212 106.69 40.2269 106.746 39.6023C106.797 39.0429 107.164 38.2082 107.809 38.1697C107.95 38.1637 108.09 38.1931 108.217 38.2552C108.344 38.3172 108.453 38.41 108.535 38.525C108.617 38.64 108.668 38.7736 108.685 38.9137C108.702 39.0538 108.684 39.1959 108.632 39.3271Z" fill="#FFC3BD"/>
<path d="M104.526 37.3914C104.501 37.3971 104.475 37.3944 104.451 37.3837C104.428 37.373 104.409 37.3549 104.396 37.3322C104.115 36.8379 103.384 36.7609 103.378 36.7579C103.362 36.7564 103.347 36.7517 103.332 36.7442C103.318 36.7366 103.306 36.7264 103.296 36.714C103.285 36.7017 103.278 36.6874 103.273 36.6721C103.269 36.6568 103.267 36.6407 103.268 36.6247C103.27 36.6088 103.275 36.5933 103.282 36.5792C103.29 36.5651 103.3 36.5526 103.312 36.5424C103.325 36.5322 103.339 36.5246 103.354 36.5199C103.37 36.5153 103.386 36.5137 103.402 36.5152C103.437 36.5152 104.266 36.604 104.609 37.2108C104.618 37.2247 104.623 37.2402 104.626 37.2563C104.628 37.2724 104.627 37.2889 104.623 37.3046C104.619 37.3203 104.612 37.3351 104.602 37.348C104.592 37.3608 104.579 37.3716 104.565 37.3795L104.526 37.3914Z" fill="#263238"/>
<path d="M100.468 36.9762C100.447 36.9812 100.426 36.9802 100.405 36.9734C100.385 36.9666 100.367 36.9543 100.353 36.9377C100.341 36.9264 100.332 36.9128 100.325 36.8978C100.319 36.8828 100.316 36.8667 100.316 36.8504C100.316 36.8341 100.319 36.818 100.325 36.803C100.332 36.788 100.341 36.7744 100.353 36.7631C100.494 36.6288 100.666 36.5302 100.854 36.4756C101.041 36.4211 101.239 36.412 101.43 36.4493C101.462 36.4577 101.489 36.4782 101.506 36.5065C101.522 36.5348 101.527 36.5685 101.519 36.6003C101.51 36.6316 101.489 36.6583 101.461 36.6748C101.433 36.6913 101.4 36.6964 101.368 36.6891C101.216 36.6604 101.06 36.6688 100.912 36.7136C100.764 36.7585 100.629 36.8384 100.519 36.9466C100.504 36.9603 100.487 36.9705 100.468 36.9762Z" fill="#263238"/>
<path d="M113.427 49.373C113.774 50.7554 114.135 52.1643 114.505 53.5496C114.875 54.9349 115.28 56.3172 115.727 57.6551C116.174 58.993 116.728 60.3191 117.24 61.6807C117.752 63.0423 118.273 64.4158 118.743 65.804L117.559 66.3634C116.79 65.1084 116.079 63.8326 115.378 62.5362C115.032 61.8889 114.695 61.2338 114.366 60.5707C114.031 59.9166 113.714 59.2121 113.433 58.4987C112.868 57.0957 112.397 55.6838 111.977 54.263C111.556 52.8422 111.172 51.4214 110.846 49.9591L113.427 49.373Z" fill="#FFC3BD"/>
<path d="M112.125 46.3891C113.19 46.6851 114.57 50.2815 114.57 50.2815L110.553 53.3363C110.553 53.3363 108.966 50.3437 109.369 48.9614C109.792 47.5258 110.905 46.0576 112.125 46.3891Z" fill="#263238"/>
<path d="M103.245 119.214C103.023 119.234 102.8 119.177 102.614 119.054C102.574 119.018 102.542 118.971 102.523 118.92C102.503 118.869 102.496 118.813 102.502 118.758C102.504 118.725 102.516 118.692 102.534 118.663C102.553 118.635 102.578 118.612 102.608 118.596C102.925 118.421 103.961 118.951 104.088 119.01C104.1 119.016 104.109 119.026 104.115 119.038C104.12 119.049 104.123 119.062 104.121 119.075C104.12 119.088 104.114 119.1 104.105 119.109C104.096 119.119 104.084 119.124 104.071 119.126C103.799 119.181 103.522 119.211 103.245 119.214ZM102.78 118.676C102.741 118.673 102.703 118.68 102.668 118.696C102.655 118.703 102.645 118.713 102.637 118.725C102.63 118.737 102.626 118.75 102.626 118.764C102.62 118.801 102.624 118.838 102.636 118.873C102.649 118.907 102.67 118.938 102.697 118.963C102.854 119.105 103.289 119.129 103.858 119.034C103.522 118.853 103.157 118.732 102.78 118.676Z" fill="#00CCCC"/>
<path d="M104.05 119.122H104.026C103.715 118.98 103.103 118.421 103.138 118.128C103.138 118.057 103.2 117.971 103.369 117.953C103.431 117.946 103.493 117.952 103.552 117.97C103.611 117.988 103.666 118.019 103.712 118.06C104.038 118.332 104.097 119.031 104.1 119.06C104.101 119.071 104.099 119.082 104.094 119.092C104.09 119.102 104.083 119.11 104.074 119.116C104.066 119.12 104.058 119.122 104.05 119.122ZM103.431 118.069H103.396C103.283 118.069 103.274 118.125 103.271 118.14C103.245 118.317 103.659 118.758 103.976 118.951C103.951 118.655 103.835 118.375 103.644 118.149C103.586 118.096 103.51 118.068 103.431 118.069Z" fill="#00CCCC"/>
<path d="M122.328 119.061H119.729L118.154 113.04H120.756L122.328 119.061Z" fill="#FFC3BD"/>
<path d="M122.352 118.758H119.43C119.407 118.756 119.383 118.76 119.361 118.768C119.339 118.776 119.319 118.79 119.303 118.807C119.287 118.824 119.275 118.844 119.267 118.867C119.26 118.889 119.258 118.913 119.261 118.936L119.439 121.248C119.458 121.373 119.52 121.488 119.615 121.572C119.709 121.656 119.83 121.705 119.957 121.709C120.972 121.692 121.437 121.633 122.733 121.633C123.524 121.633 124.311 121.715 125.397 121.715C126.484 121.715 126.309 120.635 125.833 120.531C123.698 120.093 123.627 119.49 122.813 118.912C122.678 118.816 122.517 118.762 122.352 118.758Z" fill="#263238"/>
<g opacity="0.2">
<path d="M118.157 113.04L118.965 116.145H121.567L120.756 113.04H118.157Z" fill="black"/>
</g>
<path d="M110.722 62.2051C113.726 66.2307 115.555 81.0129 116.884 88.9161C118.267 97.136 121.665 115.556 121.665 115.556H118.151C118.151 115.556 113.371 96.8193 110.867 88.8865C108.099 80.1279 103.964 62.2169 103.964 62.2169L110.722 62.2051Z" fill="#263238"/>
<path d="M121.916 115.668H117.79L117.488 114.354L122.109 114.191L121.916 115.668Z" fill="#00CCCC"/>
<path d="M122.698 118.832C122.907 118.754 123.084 118.607 123.198 118.415C123.22 118.363 123.228 118.307 123.223 118.251C123.218 118.196 123.199 118.142 123.169 118.095C123.152 118.066 123.129 118.041 123.1 118.024C123.072 118.006 123.039 117.996 123.006 117.994C122.642 117.974 121.934 118.897 121.854 119.004C121.847 119.014 121.843 119.027 121.843 119.039C121.843 119.052 121.847 119.064 121.854 119.075C121.861 119.086 121.871 119.094 121.883 119.098C121.895 119.102 121.908 119.102 121.919 119.099C122.187 119.035 122.447 118.945 122.698 118.832ZM122.884 118.145C122.919 118.127 122.958 118.117 122.997 118.116C123.011 118.116 123.024 118.121 123.036 118.129C123.047 118.137 123.056 118.147 123.062 118.16C123.083 118.19 123.096 118.225 123.1 118.261C123.104 118.297 123.099 118.334 123.086 118.367C123.003 118.563 122.627 118.77 122.067 118.933C122.293 118.626 122.57 118.36 122.884 118.145Z" fill="#00CCCC"/>
<path d="M121.931 119.096C121.939 119.092 121.946 119.087 121.952 119.081C122.171 118.82 122.482 118.051 122.313 117.805C122.272 117.746 122.189 117.69 122.017 117.749C121.959 117.769 121.906 117.801 121.86 117.843C121.815 117.885 121.779 117.935 121.754 117.992C121.576 118.376 121.825 119.033 121.834 119.063C121.838 119.073 121.844 119.082 121.852 119.088C121.861 119.095 121.87 119.1 121.881 119.102C121.889 119.105 121.898 119.106 121.907 119.105C121.916 119.104 121.924 119.1 121.931 119.096ZM122.035 117.879L122.07 117.864C122.177 117.826 122.204 117.864 122.21 117.864C122.313 118.009 122.127 118.586 121.914 118.897C121.808 118.62 121.791 118.317 121.866 118.03C121.902 117.96 121.962 117.907 122.035 117.879Z" fill="#00CCCC"/>
<path d="M103.39 37.7552L102.881 37.6338C102.881 37.6338 103.159 38.0156 103.39 37.7552Z" fill="#263238"/>
<path d="M110.861 61.5684L111.157 62.5067C111.195 62.5778 111.11 62.6547 110.988 62.6606L100.125 62.9833C100.03 62.9833 99.9503 62.9418 99.9414 62.8826L99.8201 61.9384C99.8201 61.8733 99.8911 61.817 99.9947 61.8141L110.683 61.4944C110.717 61.4906 110.751 61.4955 110.782 61.5084C110.813 61.5214 110.84 61.542 110.861 61.5684Z" fill="#00CCCC"/>
<path d="M109.461 62.8205H109.757C109.813 62.8205 109.854 62.788 109.852 62.7524L109.68 61.527C109.68 61.4915 109.624 61.4648 109.567 61.4648H109.271C109.215 61.4648 109.174 61.4974 109.177 61.5329L109.348 62.7584C109.354 62.7939 109.405 62.8205 109.461 62.8205Z" fill="#263238"/>
<path d="M100.936 63.0717H101.232C101.288 63.0717 101.33 63.0391 101.327 63.0036L101.155 61.7811C101.155 61.7456 101.099 61.716 101.043 61.719H100.747C100.69 61.719 100.649 61.7515 100.652 61.787L100.824 63.0095C100.829 63.048 100.88 63.0746 100.936 63.0717Z" fill="#263238"/>
<path d="M105.198 62.9445H105.494C105.551 62.9445 105.592 62.912 105.589 62.8735L105.417 61.651C105.417 61.6155 105.361 61.5889 105.305 61.5889H105.009C104.953 61.5889 104.911 61.6214 104.914 61.6569L105.086 62.8794C105.08 62.9209 105.142 62.9475 105.198 62.9445Z" fill="#263238"/>
<path d="M118.444 65.3358L120.516 67.2332L117.894 67.5706C117.894 67.5706 116.911 66.2238 117.379 65.25L118.444 65.3358Z" fill="#FFC3BD"/>
<path d="M120.869 69.3912L118.658 69.554L117.888 67.5708L120.51 67.2363L120.869 69.3912Z" fill="#FFC3BD"/>
<path d="M105.228 33.3895C105.228 33.3895 103.046 32.389 100.64 35.423C103.538 36.2843 105.486 35.6864 105.486 35.6864L105.228 33.3895Z" fill="#263238"/>
<path d="M104.914 33.1197C104.914 33.1197 105.441 40.7476 104.914 44.5483C107.975 43.5774 110.902 40.5493 110.902 40.5493C110.902 40.5493 110.473 32.1992 104.914 33.1197Z" fill="#263238"/>
<path d="M103.36 39.8807C102.674 39.8807 102.043 39.0312 101.951 37.9863C101.912 37.7059 101.93 37.4205 102.003 37.1469C102.076 36.8734 102.204 36.6173 102.378 36.3938C102.46 36.297 102.562 36.2188 102.676 36.1647C102.791 36.1106 102.917 36.0817 103.044 36.0801C103.73 36.0801 104.364 36.9296 104.455 37.9745C104.495 38.2551 104.477 38.5408 104.403 38.8144C104.329 39.0881 104.201 39.344 104.026 39.567C103.944 39.6638 103.842 39.742 103.727 39.7961C103.612 39.8502 103.487 39.8791 103.36 39.8807ZM103.044 36.2281C102.937 36.2306 102.833 36.2554 102.737 36.3007C102.641 36.3461 102.556 36.4111 102.487 36.4915C102.327 36.7001 102.211 36.9384 102.144 37.1925C102.078 37.4466 102.062 37.7114 102.099 37.9715C102.182 38.9394 102.75 39.7298 103.36 39.7298C103.467 39.728 103.572 39.7033 103.668 39.6573C103.764 39.6113 103.849 39.5452 103.917 39.4634C104.077 39.2552 104.194 39.017 104.262 38.7628C104.329 38.5087 104.344 38.2436 104.307 37.9834C104.222 37.0154 103.656 36.2281 103.044 36.2281Z" fill="white"/>
<path d="M100.782 39.8807C100.226 39.8807 99.7165 39.049 99.6247 37.9863C99.5626 37.273 99.7106 36.6247 100.01 36.2991C100.066 36.2324 100.135 36.1784 100.214 36.1406C100.293 36.1029 100.378 36.0822 100.465 36.0801C101.022 36.0801 101.528 36.9118 101.623 37.9745C101.682 38.6878 101.534 39.3331 101.235 39.6617C101.179 39.728 101.11 39.7818 101.032 39.8196C100.954 39.8573 100.869 39.8781 100.782 39.8807ZM100.465 36.2281C100.399 36.2296 100.333 36.2457 100.273 36.2754C100.213 36.3051 100.161 36.3475 100.119 36.3998C99.8497 36.6958 99.7135 37.3114 99.7727 37.9745C99.8527 38.9276 100.317 39.7327 100.782 39.7327C100.848 39.7302 100.913 39.7136 100.972 39.684C101.032 39.6544 101.084 39.6125 101.125 39.561C101.395 39.265 101.531 38.6494 101.475 37.9863C101.392 37.0332 100.936 36.2281 100.465 36.2281Z" fill="white"/>
<path d="M102.025 38.0537H101.993C101.93 38.0206 101.861 38.0032 101.79 38.0032C101.719 38.0032 101.65 38.0206 101.587 38.0537C101.571 38.0637 101.551 38.0668 101.532 38.0624C101.513 38.058 101.497 38.0464 101.487 38.0301C101.481 38.0222 101.477 38.0132 101.475 38.0038C101.473 37.9944 101.473 37.9847 101.475 37.9753C101.477 37.9659 101.481 37.957 101.487 37.9491C101.492 37.9412 101.499 37.9345 101.507 37.9294C101.592 37.8853 101.686 37.8623 101.781 37.8623C101.876 37.8623 101.97 37.8853 102.055 37.9294C102.072 37.9378 102.086 37.9526 102.093 37.9707C102.101 37.9888 102.101 38.009 102.093 38.0271C102.085 38.0365 102.074 38.0437 102.062 38.0483C102.051 38.053 102.038 38.0548 102.025 38.0537Z" fill="white"/>
<path d="M114.451 83.1279H33.5457V85.8896H114.451V83.1279Z" fill="#00CCCC"/>
<path opacity="0.8" d="M114.451 83.1279H33.5457V85.8896H114.451V83.1279Z" fill="white"/>
<path opacity="0.3" d="M114.454 83.1279H90.7743V85.8896H114.454V83.1279Z" fill="#00CCCC"/>
<path d="M96.5463 122.742H94.9686L92.87 85.8896H96.5463V122.742Z" fill="#00CCCC"/>
<path d="M112.874 122.742H114.454L112.356 85.8896H108.679L112.874 122.742Z" fill="#00CCCC"/>
<path d="M35.1263 122.742H33.5457L35.6443 85.8896H39.3206L35.1263 122.742Z" fill="#00CCCC"/>
<path d="M51.4537 122.742H53.0314L55.13 85.8896H51.4537V122.742Z" fill="#00CCCC"/>
<path d="M89.5252 69.8976H72.2625C72.0611 69.904 71.868 69.9787 71.7147 70.1094C71.5614 70.2401 71.4571 70.419 71.4189 70.6168L69.5304 81.4297C69.5116 81.5171 69.5129 81.6077 69.5341 81.6946C69.5553 81.7815 69.5959 81.8624 69.6529 81.9313C69.7098 82.0003 69.7817 82.0554 69.863 82.0926C69.9443 82.1298 70.033 82.148 70.1224 82.146H87.3822C87.5831 82.1398 87.776 82.0655 87.9292 81.9354C88.0825 81.8052 88.187 81.627 88.2258 81.4297L90.1143 70.6168C90.1335 70.5295 90.1327 70.4388 90.1119 70.3518C90.0911 70.2648 90.0508 70.1836 89.9941 70.1144C89.9374 70.0452 89.8658 69.9897 89.7846 69.9521C89.7034 69.9146 89.6147 69.8959 89.5252 69.8976Z" fill="#00CCCC"/>
<path opacity="0.2" d="M89.5252 69.8976H72.2625C72.0611 69.904 71.868 69.9787 71.7147 70.1094C71.5614 70.2401 71.4571 70.419 71.4189 70.6168L69.5304 81.4297C69.5116 81.5171 69.5129 81.6077 69.5341 81.6946C69.5553 81.7815 69.5959 81.8624 69.6529 81.9313C69.7098 82.0003 69.7817 82.0554 69.863 82.0926C69.9443 82.1298 70.033 82.148 70.1224 82.146H87.3822C87.5831 82.1398 87.776 82.0655 87.9292 81.9354C88.0825 81.8052 88.187 81.627 88.2258 81.4297L90.1143 70.6168C90.1335 70.5295 90.1327 70.4388 90.1119 70.3518C90.0911 70.2648 90.0508 70.1836 89.9941 70.1144C89.9374 70.0452 89.8658 69.9897 89.7846 69.9521C89.7034 69.9146 89.6147 69.8959 89.5252 69.8976Z" fill="white"/>
<path d="M89.1937 69.8972H71.928C71.7266 69.9036 71.5335 69.9783 71.3802 70.109C71.2269 70.2397 71.1226 70.4187 71.0844 70.6165L69.1959 81.4293C69.1771 81.5168 69.1784 81.6073 69.1996 81.6942C69.2208 81.7811 69.2614 81.862 69.3183 81.9309C69.3753 81.9999 69.4472 82.055 69.5285 82.0922C69.6098 82.1294 69.6985 82.1477 69.7879 82.1457H87.0477C87.2522 82.1441 87.4499 82.0719 87.6074 81.9414C87.7649 81.8109 87.8725 81.63 87.912 81.4293L89.8005 70.6165C89.8202 70.5276 89.8191 70.4353 89.7973 70.3469C89.7755 70.2585 89.7337 70.1763 89.675 70.1068C89.6162 70.0372 89.5423 69.9821 89.4588 69.9457C89.3753 69.9094 89.2846 69.8928 89.1937 69.8972Z" fill="#00CCCC"/>
<path opacity="0.4" d="M89.1937 69.8972H71.928C71.7266 69.9036 71.5335 69.9783 71.3802 70.109C71.2269 70.2397 71.1226 70.4187 71.0844 70.6165L69.1959 81.4293C69.1771 81.5168 69.1784 81.6073 69.1996 81.6942C69.2208 81.7811 69.2614 81.862 69.3183 81.9309C69.3753 81.9999 69.4472 82.055 69.5285 82.0922C69.6098 82.1294 69.6985 82.1477 69.7879 82.1457H87.0477C87.2522 82.1441 87.4499 82.0719 87.6074 81.9414C87.7649 81.8109 87.8725 81.63 87.912 81.4293L89.8005 70.6165C89.8202 70.5276 89.8191 70.4353 89.7973 70.3469C89.7755 70.2585 89.7337 70.1763 89.675 70.1068C89.6162 70.0372 89.5423 69.9821 89.4588 69.9457C89.3753 69.9094 89.2846 69.8928 89.1937 69.8972Z" fill="white"/>
<path d="M69.7968 81.85C69.7515 81.852 69.7062 81.844 69.6643 81.8266C69.6224 81.8092 69.5847 81.7828 69.5541 81.7493C69.5255 81.7113 69.5054 81.6676 69.4952 81.6211C69.4849 81.5746 69.4849 81.5265 69.4949 81.48L71.3834 70.6671C71.4095 70.5382 71.4778 70.4217 71.5775 70.336C71.6772 70.2502 71.8026 70.2001 71.9339 70.1935H89.1937C89.2392 70.1921 89.2846 70.2007 89.3265 70.2185C89.3684 70.2364 89.4059 70.2632 89.4364 70.2971C89.4652 70.335 89.4854 70.3788 89.4956 70.4253C89.5059 70.4718 89.5059 70.52 89.4956 70.5665L87.616 81.3764C87.5899 81.5053 87.5216 81.6218 87.4219 81.7075C87.3222 81.7933 87.1968 81.8434 87.0655 81.85H69.7968Z" fill="white"/>
<path d="M87.1424 82.1455H65.4338C65.1791 82.1471 64.9353 82.2489 64.7553 82.429C64.5752 82.6091 64.4733 82.8528 64.4718 83.1075H88.1044C88.1029 82.8528 88.001 82.6091 87.8209 82.429C87.6409 82.2489 87.3971 82.1471 87.1424 82.1455Z" fill="#00CCCC"/>
<path opacity="0.4" d="M87.1424 82.1455H65.4338C65.1791 82.1471 64.9353 82.2489 64.7553 82.429C64.5752 82.6091 64.4733 82.8528 64.4718 83.1075H88.1044C88.1029 82.8528 88.001 82.6091 87.8209 82.429C87.6409 82.2489 87.3971 82.1471 87.1424 82.1455Z" fill="white"/>
<path opacity="0.8" d="M87.1424 82.1455H82.3058C82.0511 82.1471 81.8073 82.2489 81.6272 82.429C81.4472 82.6091 81.3453 82.8528 81.3438 83.1075H88.1044C88.1028 82.8528 88.001 82.6091 87.8209 82.429C87.6408 82.2489 87.397 82.1471 87.1424 82.1455Z" fill="#00CCCC"/>
<path d="M98.5118 78.2979H95.3416C95.1471 78.2979 94.9894 78.4556 94.9894 78.6501V82.7763C94.9894 82.9709 95.1471 83.1286 95.3416 83.1286H98.5118C98.7063 83.1286 98.864 82.9709 98.864 82.7763V78.6501C98.864 78.4556 98.7063 78.2979 98.5118 78.2979Z" fill="#00CCCC"/>
<path d="M95.4985 80.6505L95.5547 80.3723H95.2883V80.0763H95.608L95.685 79.6855H95.981L95.901 80.0763H96.1408L96.2207 79.6855H96.5315L96.4516 80.0763H96.6026V80.3723H96.3924L96.3362 80.6505H96.6026V80.9465H96.274L96.197 81.3313H95.904L95.981 80.9495H95.7412L95.6642 81.3343H95.3682L95.4452 80.9495H95.2942V80.6535L95.4985 80.6505ZM95.8093 80.6505H96.049L96.1053 80.3723H95.8655L95.8093 80.6505Z" fill="white"/>
<path d="M97.7984 79.6826V81.3106H97.3485V80.2421C97.2829 80.294 97.2125 80.3396 97.1383 80.3782C97.0548 80.4167 96.9688 80.4493 96.8808 80.4759V80.1118C97.0087 80.074 97.129 80.0139 97.236 79.9342C97.3193 79.8661 97.386 79.7801 97.4314 79.6826H97.7984Z" fill="white"/>
<path d="M99.2281 82.5982C98.4615 82.5982 97.8606 81.7694 97.8606 80.7127C97.8606 79.656 98.4733 78.8242 99.2281 78.8242C99.9829 78.8242 100.596 79.6708 100.596 80.7127C100.596 81.7546 99.9947 82.5982 99.2281 82.5982ZM99.2281 79.2593C98.7219 79.2593 98.2957 79.9224 98.2957 80.7127C98.2957 81.503 98.7219 82.1631 99.2281 82.1631C99.7343 82.1631 100.16 81.5001 100.16 80.7127C100.16 79.9253 99.7313 79.2593 99.2281 79.2593Z" fill="#00CCCC"/>
<path d="M53.7388 69.296L53.4635 69.7222L53.1675 70.1899C52.9751 70.5036 52.7886 70.8233 52.6022 71.146C52.2351 71.7912 51.8799 72.4454 51.5514 73.1084C50.8909 74.4142 50.3376 75.7713 49.8967 77.1666C49.7902 77.51 49.6954 77.8533 49.6007 78.1967L49.4794 78.7147L49.429 78.9722L49.4024 79.1024C49.4024 79.1439 49.3846 79.2001 49.3846 79.1883C49.3846 79.1764 49.361 79.1883 49.3314 79.1113C49.2996 79.0428 49.2506 78.9837 49.1893 78.9396C49.139 78.91 49.1301 78.9396 49.1567 78.9663C49.218 79.0219 49.2867 79.0688 49.361 79.1054C49.6137 79.2296 49.8813 79.3211 50.1572 79.3777C50.4922 79.4558 50.8311 79.5161 51.1725 79.5583C51.877 79.65 52.6525 79.6944 53.3806 79.7329H53.4546C53.6944 79.7454 53.9225 79.8406 54.1 80.0022C54.2775 80.1638 54.3936 80.382 54.4285 80.6195C54.4634 80.8571 54.4149 81.0994 54.2913 81.3052C54.1678 81.5111 53.9767 81.6678 53.7506 81.7487C52.9333 82.0418 52.0884 82.2511 51.2287 82.3732C50.2676 82.53 49.2857 82.5049 48.3338 82.2992C48.0263 82.2237 47.7284 82.1135 47.4458 81.9707C47.0887 81.7895 46.7661 81.5471 46.4927 81.2544C46.1733 80.9072 45.9365 80.4923 45.8001 80.0408C45.6842 79.6332 45.6431 79.208 45.6787 78.7857C45.6787 78.6732 45.6787 78.6318 45.6965 78.5756L45.7172 78.4128L45.7557 78.0812C45.7882 77.8652 45.8178 77.6461 45.8534 77.43C45.9274 76.9979 46.0102 76.5687 46.1138 76.1484C46.519 74.4849 47.0882 72.8658 47.8129 71.3147C48.171 70.551 48.5529 69.7992 48.9702 69.068C49.1774 68.701 49.3965 68.3399 49.6214 67.9817C49.7339 67.8012 49.8494 67.6236 49.9707 67.443C50.0921 67.2624 50.2046 67.0996 50.3585 66.8865C50.6772 66.4578 51.1493 66.1687 51.6761 66.0797C52.2029 65.9907 52.7437 66.1087 53.1856 66.4089C53.6275 66.7091 53.9364 67.1684 54.0477 67.6909C54.1591 68.2134 54.0643 68.7588 53.7832 69.2131L53.7388 69.296Z" fill="#00CCCC"/>
<path d="M61.6539 57.3493C61.6835 57.5505 61.8137 57.6956 61.9499 57.6778C62.086 57.6601 62.163 57.4795 62.1334 57.2812C62.1038 57.0829 61.9735 56.9349 61.8374 56.9526C61.7012 56.9704 61.6243 57.1509 61.6539 57.3493Z" fill="#263238"/>
<path d="M61.7959 57.6992C62.1248 58.274 62.5312 58.8009 63.0036 59.2651C62.8819 59.3827 62.7358 59.4723 62.5758 59.5275C62.4157 59.5827 62.2455 59.6023 62.0771 59.5847L61.7959 57.6992Z" fill="#A02724"/>
<path d="M60.7807 56.3494C60.8057 56.3473 60.8291 56.3357 60.8458 56.3168C60.9491 56.2095 61.0767 56.1285 61.2178 56.0806C61.3589 56.0327 61.5095 56.0193 61.6568 56.0416C61.6878 56.0477 61.7199 56.0416 61.7465 56.0245C61.773 56.0074 61.7918 55.9806 61.7989 55.9498C61.805 55.9192 61.7988 55.8874 61.7816 55.8614C61.7645 55.8353 61.7377 55.8171 61.7071 55.8107C61.5214 55.7798 61.331 55.7944 61.1521 55.8532C60.9733 55.9119 60.8113 56.0131 60.68 56.1481C60.6581 56.1707 60.6459 56.201 60.6459 56.2325C60.6459 56.264 60.6581 56.2942 60.68 56.3168C60.6934 56.3293 60.7093 56.3387 60.7267 56.3443C60.7441 56.35 60.7625 56.3517 60.7807 56.3494Z" fill="#263238"/>
<path d="M55.7901 59.5547C55.8759 61.4195 55.7338 64.788 54.2864 65.8092C54.2864 65.8092 54.5084 67.7184 57.8739 68.2216C61.571 68.7721 59.9163 66.6468 59.9163 66.6468C57.9686 65.8654 58.2439 64.3736 58.8063 63.0208L55.7901 59.5547Z" fill="#B55B52"/>
<path d="M53.7063 66.5553C53.5612 65.7117 53.4103 64.7497 54.0467 64.6017C54.7452 64.4389 58.3623 64.9213 59.5049 65.7857C60.6475 66.65 60.0614 68.1537 60.0614 68.1537L53.7063 66.5553Z" fill="#E0E0E0"/>
<path d="M63.4595 69.6988C63.5956 72.6825 63.4595 78.5995 61.4348 87.5564H48.0497C47.9668 85.6946 49.8879 77.6671 49.7221 68.8463C49.7138 68.4041 49.7937 67.9648 49.9569 67.5538C50.1202 67.1428 50.3636 66.7684 50.6729 66.4524C50.9823 66.1364 51.3515 65.8852 51.7589 65.7133C52.1664 65.5414 52.604 65.4523 53.0462 65.4512C53.3096 65.4512 53.5879 65.4512 53.875 65.4837C55.7685 65.6155 57.6525 65.8606 59.5167 66.2178C60.0732 66.3451 60.6149 66.4931 61.1063 66.6441C61.7653 66.8489 62.3451 67.2522 62.7663 67.799C63.1875 68.3458 63.4296 69.0092 63.4595 69.6988Z" fill="#00CCCC"/>
<path opacity="0.2" d="M61.4378 75.0684C61.2247 76.5839 60.7333 79.2124 62.5063 82.1191C62.7076 80.9144 62.8704 79.7866 63.0036 78.7328L61.4378 75.0684Z" fill="black"/>
<path d="M71.8688 78.7353L74.1214 77.9598L73.2038 75.5918C72.6919 75.6661 72.2097 75.8779 71.8088 76.2048C71.4079 76.5317 71.1033 76.9613 70.9275 77.4477L71.8688 78.7353Z" fill="#B55B52"/>
<path d="M75.3142 77.2852L75.554 75.373L73.2038 75.5684L74.1214 77.9453L75.3142 77.2852Z" fill="#B55B52"/>
<path d="M63.4447 69.4235C63.569 69.8586 63.7229 70.3648 63.8709 70.8384C64.0189 71.312 64.1669 71.7974 64.3386 72.274C64.6583 73.2271 65.0105 74.1655 65.3805 75.0831C65.7505 76.0007 66.1649 76.8916 66.6119 77.7234C67.0202 78.5102 67.5167 79.2481 68.0919 79.9227L65.9222 79.5882C66.3395 79.4076 66.7687 79.2211 67.2009 78.9962C67.6331 78.7712 68.0741 78.5699 68.5092 78.3331L69.8412 77.6316C70.2852 77.3978 70.7292 77.1432 71.1821 76.9242L71.2295 76.9005C71.4409 76.7945 71.6819 76.7631 71.9135 76.8115C72.145 76.8599 72.3533 76.9852 72.5046 77.167C72.6559 77.3488 72.7412 77.5764 72.7467 77.8129C72.7522 78.0493 72.6775 78.2807 72.5348 78.4693C72.2036 78.9067 71.8499 79.3266 71.4751 79.7273C71.1051 80.1269 70.7174 80.5058 70.3148 80.8787C69.9123 81.2517 69.486 81.6039 69.042 81.9414C68.598 82.2788 68.1274 82.6044 67.6271 82.9063C67.3067 83.0975 66.9326 83.1788 66.5617 83.1376C66.1908 83.0965 65.8436 82.9352 65.5729 82.6784L65.4575 82.5689C64.5802 81.7184 63.8189 80.756 63.1931 79.7066C62.5988 78.7415 62.0698 77.7378 61.6095 76.7022C61.1447 75.6869 60.7451 74.6568 60.3811 73.6208C60.2005 73.1028 60.0259 72.5818 59.869 72.0579C59.7121 71.534 59.573 71.019 59.422 70.4388C59.2803 69.9077 59.3554 69.3421 59.6307 68.8664C59.9061 68.3907 60.3591 68.0438 60.8902 67.9021C61.4213 67.7604 61.9869 67.8355 62.4626 68.1108C62.9383 68.3861 63.2852 68.8392 63.4269 69.3702L63.4447 69.4235Z" fill="#00CCCC"/>
<path d="M54.9317 57.9237C55.4497 60.3509 55.6273 61.7983 57.054 62.8728C59.2 64.489 62.0594 62.9143 62.2784 60.3775C62.4738 58.0954 61.5976 54.5079 59.052 53.8892C58.4911 53.7505 57.904 53.7574 57.3466 53.9094C56.7891 54.0614 56.2798 54.3534 55.8669 54.7576C55.4541 55.1619 55.1514 55.665 54.9878 56.2191C54.8241 56.7732 54.8048 57.36 54.9317 57.9237Z" fill="#B55B52"/>
<path d="M60.162 58.1783C61.3223 58.0895 61.2542 57.5537 60.9938 57.16C60.7333 56.7664 60.4166 55.3515 60.4166 55.3515C60.4166 55.3515 62.0298 55.7777 61.6982 54.2326C61.3667 52.6875 59.1882 50.7309 57.2849 51.9297C53.4931 51.3052 52.2529 52.8355 52.8449 54.2504C49.8346 55.5824 52.0072 58.2789 53.206 58.2789C52.1374 59.232 53.7329 60.6055 56.3199 62.1476C58.2143 59.8655 61.0086 60.4782 60.162 58.1783Z" fill="#263238"/>
<path d="M57.8177 52.7054C57.7783 52.7048 57.7394 52.6964 57.7034 52.6807C57.6673 52.6649 57.6347 52.6421 57.6075 52.6136C57.1664 52.17 56.6166 51.8498 56.013 51.6852C55.4095 51.5205 54.7733 51.5171 54.168 51.6753C54.0919 51.6931 54.0118 51.68 53.9452 51.639C53.8787 51.598 53.8311 51.5323 53.8128 51.4562C53.795 51.3801 53.808 51.3 53.8491 51.2335C53.8901 51.1669 53.9558 51.1193 54.0318 51.101C54.738 50.9208 55.4789 50.9276 56.1816 51.1207C56.8844 51.3137 57.5247 51.6865 58.0397 52.2022C58.0948 52.2576 58.1258 52.3326 58.1258 52.4108C58.1258 52.489 58.0948 52.5641 58.0397 52.6195C58.0106 52.6484 57.9759 52.671 57.9377 52.6857C57.8995 52.7005 57.8586 52.7072 57.8177 52.7054Z" fill="#263238"/>
<path d="M53.8957 60.9757C53.8567 60.9759 53.8181 60.9684 53.782 60.9537C53.746 60.939 53.7132 60.9173 53.6855 60.8898C52.8508 60.0492 52.5015 59.3921 52.6081 58.8178C52.6578 58.6008 52.7607 58.3996 52.9074 58.2322C53.0541 58.0648 53.2401 57.9365 53.4487 57.8588C53.5198 57.825 53.6013 57.8209 53.6754 57.8472C53.7495 57.8736 53.8101 57.9283 53.8439 57.9994C53.8776 58.0704 53.8818 58.152 53.8554 58.2261C53.8291 58.3002 53.7743 58.3608 53.7033 58.3945C53.3925 58.5425 53.2267 58.7142 53.1912 58.9185C53.1557 59.1227 53.2741 59.6348 54.1058 60.4695C54.1336 60.497 54.1556 60.5298 54.1706 60.5658C54.1857 60.6019 54.1934 60.6406 54.1934 60.6797C54.1934 60.7187 54.1857 60.7574 54.1706 60.7935C54.1556 60.8296 54.1336 60.8623 54.1058 60.8898C54.0782 60.9173 54.0454 60.939 54.0093 60.9537C53.9733 60.9684 53.9346 60.9759 53.8957 60.9757Z" fill="#263238"/>
<path d="M58.7353 57.989C58.934 58.5734 59.3187 59.0766 59.8305 59.4217C60.5083 59.8686 60.9671 59.3625 60.8783 58.6313C60.7984 57.9713 60.3485 56.9441 59.6203 56.7873C58.8922 56.6304 58.5074 57.2816 58.7353 57.989Z" fill="#B55B52"/>
<path d="M81.8795 120.575C82.1992 120.575 82.51 120.531 82.6136 120.389C82.6402 120.351 82.6545 120.305 82.6545 120.259C82.6545 120.212 82.6402 120.167 82.6136 120.128C82.5936 120.094 82.5667 120.064 82.5346 120.04C82.5026 120.016 82.466 119.999 82.4271 119.989C82.0098 119.877 81.1366 120.374 81.0981 120.398C81.0878 120.403 81.0795 120.412 81.0747 120.423C81.0699 120.433 81.0688 120.445 81.0715 120.457C81.0729 120.469 81.0779 120.48 81.0858 120.489C81.0938 120.498 81.1042 120.504 81.1159 120.507C81.3681 120.551 81.6236 120.573 81.8795 120.575ZM82.2762 120.09C82.3142 120.09 82.352 120.095 82.3887 120.105C82.4131 120.109 82.4363 120.119 82.4567 120.133C82.4771 120.148 82.4942 120.166 82.5071 120.188C82.5485 120.262 82.5337 120.297 82.5071 120.318C82.3887 120.481 81.7552 120.484 81.2905 120.418C81.5984 120.245 81.9373 120.133 82.288 120.09H82.2762Z" fill="#00CCCC"/>
<path d="M81.1218 120.507H81.1455C81.4415 120.374 82.0483 119.832 82.0009 119.548C82.0009 119.483 81.9447 119.4 81.7819 119.382C81.7231 119.376 81.6638 119.382 81.6074 119.399C81.5509 119.417 81.4985 119.445 81.4533 119.483C81.1336 119.746 81.0655 120.421 81.0626 120.448C81.0622 120.458 81.0644 120.469 81.0691 120.478C81.0737 120.487 81.0807 120.495 81.0892 120.501C81.0989 120.507 81.1106 120.509 81.1218 120.507ZM81.7345 119.492H81.77C81.8766 119.492 81.8825 119.545 81.8855 119.557C81.9121 119.729 81.5066 120.149 81.1958 120.338C81.2242 120.053 81.3399 119.783 81.5273 119.566C81.5854 119.517 81.6588 119.491 81.7345 119.492Z" fill="#00CCCC"/>
<path d="M78.2772 120.448H80.7814L80.3048 114.652H77.8007L78.2772 120.448Z" fill="#B55B52"/>
<path d="M80.7843 120.158H78.0523C78.0046 120.157 77.9581 120.174 77.9227 120.206C77.8874 120.238 77.8659 120.282 77.8628 120.33L77.7 122.544C77.698 122.602 77.7076 122.659 77.728 122.713C77.7485 122.766 77.7795 122.816 77.8192 122.857C77.8589 122.899 77.9065 122.932 77.9592 122.955C78.012 122.978 78.0687 122.99 78.1263 122.991C79.109 122.973 80.5239 122.917 81.7641 122.917C83.2115 122.917 83.3625 122.994 85.0615 122.994C86.0887 122.994 86.2189 121.955 85.7749 121.863C83.7562 121.434 83.2619 121.387 81.4148 120.345C81.224 120.23 81.007 120.166 80.7843 120.158Z" fill="#263238"/>
<path opacity="0.2" d="M80.3019 114.655L80.5505 117.642H78.0463L77.8007 114.655H80.3019Z" fill="black"/>
<path d="M66.304 120.575C66.515 120.6 66.7272 120.541 66.896 120.412C66.9273 120.369 66.9441 120.317 66.9441 120.264C66.9441 120.211 66.9273 120.159 66.896 120.116C66.8765 120.082 66.8497 120.051 66.8176 120.028C66.7854 120.004 66.7485 119.988 66.7095 119.98C66.3454 119.894 65.6528 120.368 65.6232 120.389C65.6143 120.395 65.6074 120.405 65.6032 120.415C65.599 120.425 65.5978 120.437 65.5995 120.448C65.6013 120.459 65.6065 120.469 65.6145 120.477C65.6225 120.485 65.6328 120.49 65.6439 120.492C65.8602 120.544 66.0816 120.572 66.304 120.575ZM66.6178 120.099C66.6423 120.095 66.6672 120.095 66.6918 120.099C66.7147 120.103 66.7363 120.113 66.7552 120.127C66.7741 120.14 66.7898 120.158 66.8013 120.178C66.8546 120.276 66.822 120.318 66.8013 120.329C66.6947 120.471 66.1827 120.471 65.8097 120.409C66.0467 120.248 66.3167 120.142 66.6 120.099H66.6178Z" fill="#00CCCC"/>
<path d="M65.6587 120.507H65.6854C65.9458 120.365 66.4461 119.817 66.3928 119.539C66.384 119.495 66.3604 119.456 66.3259 119.427C66.2914 119.399 66.2481 119.383 66.2034 119.382C66.1584 119.377 66.1127 119.381 66.0694 119.394C66.026 119.407 65.9859 119.429 65.9518 119.459C65.6558 119.696 65.5995 120.418 65.5995 120.448C65.5983 120.459 65.6001 120.47 65.6049 120.48C65.6096 120.49 65.6169 120.498 65.6262 120.504C65.6365 120.508 65.6478 120.509 65.6587 120.507ZM66.1619 119.492H66.1886C66.2655 119.492 66.2744 119.536 66.2774 119.551C66.307 119.717 65.9814 120.143 65.7298 120.327C65.7478 120.041 65.8509 119.768 66.0258 119.542C66.0639 119.51 66.112 119.492 66.1619 119.492Z" fill="#00CCCC"/>
<path d="M63.3677 120.448H65.8689L67.1269 114.652H64.6257L63.3677 120.448Z" fill="#B55B52"/>
<path d="M66.0465 120.157H63.2374C63.1876 120.157 63.1391 120.174 63.1002 120.205C63.0614 120.236 63.0346 120.28 63.0243 120.329L62.53 122.543C62.5179 122.597 62.5183 122.653 62.531 122.707C62.5438 122.761 62.5686 122.812 62.6036 122.855C62.6387 122.898 62.683 122.932 62.7333 122.956C62.7836 122.979 62.8386 122.991 62.8941 122.99C63.8768 122.972 64.3534 122.916 65.5906 122.916C66.3514 122.916 67.3252 122.993 68.376 122.993C69.4268 122.993 69.56 121.954 69.1338 121.862C67.2068 121.439 67.0618 120.859 66.455 120.302C66.3412 120.206 66.1958 120.154 66.0465 120.157Z" fill="#263238"/>
<path d="M57.424 87.5566C57.424 87.5566 71.3064 91.7687 71.6498 97.3454C72.2802 107.617 67.2423 116.369 67.2423 116.369H63.489C63.489 116.369 64.9158 112.03 65.4278 102.727C66.0702 91.0346 43.9619 102.999 48.0497 87.5566H57.424Z" fill="black"/>
<g opacity="0.2">
<path d="M64.6227 114.655H67.1269L66.4786 117.642H63.9745L64.6227 114.655Z" fill="black"/>
</g>
<path d="M61.4348 87.5566C61.4348 87.5566 79.3872 88.7406 80.0976 98.2689C80.9116 109.221 81.1484 116.369 81.1484 116.369H77.4307C77.4307 116.369 75.5185 109.653 73.8787 99.9975C73.3843 97.1056 67.2512 96.6083 61.4467 96.265C56.4443 95.969 52.6022 95.673 52.1819 90.1318L52.247 87.5566H61.4348Z" fill="#263238"/>
<path d="M82.0571 115.374C82.0779 115.374 81.8174 117.15 81.8174 117.15H76.664L76.5249 115.578L82.0571 115.374Z" fill="#00CCCC"/>
<path d="M68.376 115.374C68.3967 115.374 67.9024 117.15 67.9024 117.15H62.752L62.8467 115.578L68.376 115.374Z" fill="#00CCCC"/>
<path d="M60.6267 95.477L58.1137 78.4067C58.0462 77.9446 57.8146 77.5222 57.4613 77.2168C57.1081 76.9114 56.6567 76.7432 56.1897 76.7432H41.3631C41.0836 76.7431 40.8075 76.8033 40.5534 76.9196C40.2994 77.0359 40.0734 77.2056 39.8908 77.4171C39.7082 77.6287 39.5733 77.877 39.4954 78.1453C39.4174 78.4137 39.3982 78.6956 39.4391 78.972L41.8663 95.477C41.8663 95.6669 41.9037 95.855 41.9765 96.0305C42.0493 96.2059 42.1559 96.3653 42.2904 96.4995C42.4248 96.6336 42.5844 96.74 42.76 96.8124C42.9356 96.8848 43.1238 96.9219 43.3137 96.9215H70.3415C70.3415 96.7315 70.304 96.5435 70.2312 96.368C70.1584 96.1926 70.0518 96.0332 69.9173 95.899C69.7829 95.7649 69.6233 95.6585 69.4477 95.5861C69.2721 95.5137 69.084 95.4766 68.894 95.477H60.6267Z" fill="#00CCCC"/>
<path opacity="0.5" d="M60.6267 95.477L58.1137 78.4067C58.0462 77.9446 57.8146 77.5222 57.4613 77.2168C57.1081 76.9114 56.6567 76.7432 56.1897 76.7432H41.3631C41.0836 76.7431 40.8075 76.8033 40.5534 76.9196C40.2994 77.0359 40.0734 77.2056 39.8908 77.4171C39.7082 77.6287 39.5733 77.877 39.4954 78.1453C39.4174 78.4137 39.3982 78.6956 39.4391 78.972L41.8663 95.477C41.8663 95.6669 41.9037 95.855 41.9765 96.0305C42.0493 96.2059 42.1559 96.3653 42.2904 96.4995C42.4248 96.6336 42.5844 96.74 42.76 96.8124C42.9356 96.8848 43.1238 96.9219 43.3137 96.9215H70.3415C70.3415 96.7315 70.304 96.5435 70.2312 96.368C70.1584 96.1926 70.0518 96.0332 69.9173 95.899C69.7829 95.7649 69.6233 95.6585 69.4477 95.5861C69.2721 95.5137 69.084 95.4766 68.894 95.477H60.6267Z" fill="white"/>
<path opacity="0.3" d="M56.1897 76.7432H41.3631C41.0836 76.7431 40.8075 76.8033 40.5534 76.9196C40.2994 77.0359 40.0734 77.2056 39.8908 77.4171C39.7082 77.6287 39.5733 77.877 39.4954 78.1453C39.4174 78.4137 39.3982 78.6956 39.4391 78.972L41.8663 95.477C41.8663 95.6669 41.9037 95.855 41.9765 96.0305C42.0493 96.2059 42.1559 96.3653 42.2904 96.4995C42.4248 96.6336 42.5844 96.74 42.76 96.8124C42.9356 96.8848 43.1238 96.9219 43.3137 96.9215H59.0343L56.1897 76.7432Z" fill="#00CCCC"/>
<path d="M42.0557 123.207H41.218L43.3137 96.9219H44.1543L42.0557 123.207Z" fill="#00CCCC"/>
<path opacity="0.6" d="M42.0557 123.207H41.218L43.3137 96.9219H44.1543L42.0557 123.207Z" fill="white"/>
<path d="M56.3081 123.207H55.4704L57.569 96.9219H58.4067L56.3081 123.207Z" fill="#00CCCC"/>
<path opacity="0.6" d="M56.3081 123.207H55.4704L57.569 96.9219H58.4067L56.3081 123.207Z" fill="white"/>
<path d="M57.5986 123.207H56.758L54.6623 96.9219H55.5L57.5986 123.207Z" fill="#00CCCC"/>
<path opacity="0.7" d="M57.5986 123.207H56.758L54.6623 96.9219H55.5L57.5986 123.207Z" fill="white"/>
<path d="M71.8511 123.207H71.0134L68.9147 96.9219H69.7524L71.8511 123.207Z" fill="#00CCCC"/>
<path opacity="0.7" d="M71.8511 123.207H71.0134L68.9147 96.9219H69.7524L71.8511 123.207Z" fill="white"/>
</svg>
