<svg width="141" height="128" viewBox="0 0 141 128" fill="none" xmlns="http://www.w3.org/2000/svg">
<g clip-path="url(#clip0_915_9907)">
<path d="M135.283 43.4874L134.651 43.2763L140.45 26.0632C141.339 23.4211 141.137 20.5357 139.888 18.0416C138.639 15.5476 136.445 13.649 133.788 12.7636L97.1151 0.548201C94.4588 -0.33681 91.5577 -0.136539 89.0498 1.10499C86.5419 2.34651 84.6324 4.52766 83.7413 7.16886L51.9306 101.601C51.0408 104.243 51.2427 107.129 52.4919 109.623C53.7411 112.117 55.9354 114.015 58.592 114.901L95.2641 127.117C97.9211 128.002 100.823 127.801 103.331 126.559C105.839 125.316 107.748 123.134 108.638 120.492L130.522 55.5252L131.154 55.7353L135.283 43.4874Z" fill="#3F3D56"/>
<path d="M133.317 15.4892L128.532 13.8949C128.572 14.5052 128.46 15.1158 128.207 15.6729C127.953 16.23 127.565 16.7164 127.078 17.0893C126.591 17.4622 126.019 17.7101 125.412 17.811C124.806 17.9119 124.183 17.8628 123.601 17.6681L102.592 10.6691C102.009 10.4752 101.483 10.1416 101.06 9.69769C100.638 9.25378 100.331 8.71323 100.168 8.12373C100.005 7.53423 99.9906 6.9139 100.126 6.31747C100.261 5.72104 100.541 5.16685 100.943 4.70377L96.4715 3.21457C95.4889 2.88696 94.451 2.75508 93.4171 2.82646C92.3832 2.89783 91.3735 3.17107 90.4458 3.63057C89.5182 4.09006 88.6906 4.72681 88.0104 5.50444C87.3302 6.28206 86.8108 7.18533 86.4817 8.16263L54.7171 102.457C54.3877 103.434 54.2551 104.466 54.3268 105.494C54.3986 106.522 54.6734 107.526 55.1354 108.449C55.5975 109.371 56.2378 110.194 57.0197 110.871C57.8017 111.547 58.71 112.064 59.6928 112.391L96.5455 124.663C97.5281 124.99 98.566 125.122 99.5999 125.051C100.634 124.979 101.643 124.706 102.571 124.247C103.499 123.787 104.326 123.15 105.007 122.373C105.687 121.595 106.206 120.692 106.535 119.715L138.299 25.4207C138.628 24.4435 138.761 23.4113 138.689 22.3832C138.617 21.355 138.343 20.351 137.881 19.4284C137.419 18.5059 136.778 17.6829 135.996 17.0065C135.214 16.3301 134.306 15.8136 133.323 15.4863L133.317 15.4892Z" fill="white"/>
<path d="M124.103 47.1251L84.7787 34.0252C84.5864 33.96 84.4279 33.8216 84.3379 33.6405C84.2478 33.4593 84.2337 33.2501 84.2984 33.0585L87.5642 23.3573C87.6299 23.166 87.769 23.0084 87.9512 22.9189C88.1334 22.8294 88.3437 22.8153 88.5364 22.8797L127.862 35.9796C128.054 36.0448 128.212 36.1832 128.302 36.3643C128.392 36.5455 128.407 36.7547 128.342 36.9463L125.076 46.6466C125.01 46.8378 124.871 46.9954 124.689 47.0849C124.507 47.1744 124.296 47.1886 124.104 47.1242L124.103 47.1251ZM88.4365 23.1653C88.3209 23.1267 88.1947 23.1352 88.0854 23.1889C87.9762 23.2426 87.8928 23.3371 87.8534 23.4518L84.5875 33.1521C84.5487 33.267 84.5573 33.3925 84.6113 33.5012C84.6653 33.6098 84.7604 33.6928 84.8757 33.732L124.201 46.8319C124.316 46.8705 124.443 46.862 124.552 46.8083C124.661 46.7546 124.745 46.66 124.784 46.5453L128.05 36.845C128.089 36.7301 128.08 36.6046 128.026 36.496C127.972 36.3873 127.877 36.3044 127.762 36.2652L88.4365 23.1653Z" fill="#3F3D56"/>
<path d="M111.173 85.5071L71.8486 72.4072C71.6563 72.3419 71.4978 72.2036 71.4078 72.0224C71.3178 71.8413 71.3036 71.632 71.3683 71.4405L77.4198 53.4823C77.4854 53.291 77.6245 53.1334 77.8067 53.0439C77.9889 52.9544 78.1993 52.9403 78.3919 53.0047L117.717 66.1046C117.909 66.1698 118.068 66.3082 118.158 66.4893C118.248 66.6705 118.262 66.8797 118.197 67.0713L112.146 85.0295C112.08 85.221 111.941 85.3788 111.759 85.4683C111.576 85.5578 111.366 85.5718 111.173 85.5071ZM78.2892 53.2922C78.1736 53.2536 78.0474 53.2621 77.9382 53.3158C77.8289 53.3695 77.7455 53.464 77.7061 53.5787L71.6546 71.537C71.6158 71.6519 71.6244 71.7773 71.6784 71.886C71.7324 71.9946 71.8274 72.0776 71.9428 72.1168L111.268 85.2167C111.383 85.2553 111.51 85.2468 111.619 85.1931C111.728 85.1394 111.812 85.0449 111.851 84.9302L117.902 66.9719C117.941 66.857 117.933 66.7316 117.879 66.6229C117.825 66.5142 117.73 66.4313 117.614 66.3921L78.2892 53.2922Z" fill="#3F3D56"/>
<path d="M118.737 62.0914L101.26 56.2645C101.068 56.1992 100.909 56.0609 100.819 55.8797C100.729 55.6986 100.715 55.4893 100.78 55.2978L104.045 45.5975C104.111 45.4063 104.25 45.2486 104.432 45.1591C104.615 45.0696 104.825 45.0555 105.018 45.1199L122.5 50.9468C122.692 51.012 122.85 51.1503 122.94 51.3315C123.03 51.5127 123.045 51.7219 122.98 51.9134L119.714 61.6137C119.682 61.709 119.631 61.7969 119.564 61.8725C119.497 61.9481 119.416 62.0098 119.325 62.0542C119.235 62.0986 119.136 62.1247 119.035 62.1311C118.934 62.1375 118.833 62.124 118.737 62.0914ZM104.921 45.4103C104.806 45.3717 104.68 45.3802 104.57 45.4339C104.461 45.4876 104.378 45.5822 104.338 45.6969L101.073 55.3972C101.034 55.5121 101.042 55.6375 101.096 55.7462C101.15 55.8548 101.245 55.9378 101.361 55.977L118.843 61.8038C118.958 61.8424 119.085 61.8339 119.194 61.7802C119.303 61.7265 119.387 61.632 119.426 61.5173L122.692 51.817C122.731 51.7021 122.722 51.5766 122.668 51.4679C122.614 51.3593 122.519 51.2763 122.404 51.2371L104.921 45.4103Z" fill="#E6E6E6"/>
<path d="M81.4225 101.693L63.9452 95.8659C63.7529 95.8006 63.5944 95.6623 63.5044 95.4811C63.4144 95.3 63.4002 95.0907 63.4649 94.8992L69.5625 76.7977C69.6281 76.6065 69.7672 76.4488 69.9494 76.3593C70.1316 76.2698 70.342 76.2557 70.5346 76.3201L88.0167 82.1469C88.209 82.2122 88.3675 82.3505 88.4575 82.5317C88.5475 82.7128 88.5617 82.9221 88.497 83.1136L82.3994 101.215C82.3669 101.31 82.3159 101.398 82.2492 101.474C82.1824 101.549 82.1014 101.611 82.0107 101.656C81.9199 101.7 81.8212 101.726 81.7203 101.732C81.6193 101.739 81.5182 101.725 81.4225 101.693ZM70.4327 76.6104C70.3172 76.5719 70.191 76.5804 70.0817 76.6341C69.9725 76.6878 69.8891 76.7823 69.8497 76.897L63.7521 94.9985C63.7133 95.1134 63.7219 95.2389 63.7759 95.3475C63.8299 95.4562 63.9249 95.5392 64.0403 95.5784L81.5224 101.405C81.6379 101.444 81.7641 101.435 81.8733 101.382C81.9826 101.328 82.0661 101.233 82.1055 101.119L88.203 83.0172C88.2418 82.9023 88.2333 82.7767 88.1793 82.6681C88.1253 82.5594 88.0302 82.4765 87.9149 82.4373L70.4327 76.6104Z" fill="#E6E6E6"/>
<path d="M102.978 108.874L85.4962 103.048C85.3039 102.982 85.1454 102.844 85.0554 102.663C84.9654 102.482 84.9512 102.272 85.0159 102.081L91.1135 83.9793C91.1791 83.7881 91.3182 83.6305 91.5004 83.541C91.6826 83.4515 91.893 83.4374 92.0856 83.5017L109.568 89.3286C109.76 89.3939 109.919 89.5322 110.009 89.7134C110.099 89.8945 110.113 90.1037 110.048 90.2953L103.95 108.397C103.885 108.588 103.746 108.746 103.564 108.835C103.381 108.925 103.171 108.939 102.978 108.874ZM91.9886 83.7921C91.8731 83.7536 91.7468 83.762 91.6376 83.8157C91.5283 83.8694 91.4449 83.964 91.4055 84.0787L85.3079 102.18C85.2691 102.295 85.2777 102.421 85.3317 102.529C85.3857 102.638 85.4808 102.721 85.5961 102.76L103.078 108.587C103.194 108.625 103.32 108.617 103.429 108.563C103.538 108.51 103.622 108.415 103.661 108.3L109.759 90.1988C109.798 90.0839 109.789 89.9584 109.735 89.8498C109.681 89.7411 109.586 89.6581 109.471 89.619L91.9886 83.7921Z" fill="#E6E6E6"/>
<path d="M82.0622 64.4128C83.7901 64.4128 85.1907 63.0198 85.1907 61.3016C85.1907 59.5833 83.7901 58.1904 82.0622 58.1904C80.3344 58.1904 78.9337 59.5833 78.9337 61.3016C78.9337 63.0198 80.3344 64.4128 82.0622 64.4128Z" fill="#00CCCC"/>
<path d="M89.5738 61.616C89.4443 61.5779 89.3049 61.5913 89.1851 61.6533C89.0653 61.7153 88.9743 61.8212 88.9313 61.9485C88.8884 62.0759 88.8968 62.2148 88.9549 62.3362C89.0129 62.4575 89.1159 62.5517 89.2424 62.599L112.55 70.363C112.68 70.4011 112.819 70.3877 112.939 70.3257C113.059 70.2637 113.15 70.1578 113.193 70.0305C113.236 69.9031 113.227 69.7642 113.169 69.6429C113.111 69.5215 113.008 69.4274 112.882 69.3801L89.5738 61.616Z" fill="#E6E6E6"/>
<path d="M88.5844 64.5673C88.5188 64.5428 88.4489 64.5317 88.3789 64.5346C88.3089 64.5376 88.2402 64.5545 88.1769 64.5844C88.1136 64.6144 88.0571 64.6567 88.0106 64.7088C87.9641 64.761 87.9286 64.8219 87.9064 64.888C87.8841 64.9541 87.8754 65.0239 87.8809 65.0934C87.8864 65.1629 87.9059 65.2305 87.9382 65.2923C87.9706 65.3542 88.0151 65.4088 88.0692 65.4532C88.1233 65.4975 88.1858 65.5305 88.253 65.5503L98.2822 68.8936C98.3478 68.9181 98.4176 68.9292 98.4876 68.9262C98.5577 68.9233 98.6264 68.9064 98.6897 68.8764C98.753 68.8465 98.8095 68.8042 98.856 68.7521C98.9025 68.6999 98.9379 68.639 98.9602 68.5729C98.9825 68.5068 98.9912 68.437 98.9857 68.3675C98.9802 68.298 98.9607 68.2303 98.9284 68.1685C98.896 68.1067 98.8515 68.052 98.7974 68.0077C98.7433 67.9634 98.6808 67.9304 98.6136 67.9106L88.5844 64.5673Z" fill="#E6E6E6"/>
<path d="M77.8646 66.243C77.7159 66.1707 77.545 66.1579 77.3872 66.2074C77.2293 66.2568 77.0966 66.3646 77.0164 66.5085C76.9204 66.7808 77.1566 67.1017 77.5332 67.2278L109.691 77.9407C109.839 78.0129 110.01 78.0257 110.168 77.9763C110.326 77.9269 110.459 77.819 110.539 77.6751C110.635 77.4038 110.399 77.0819 110.022 76.9558L77.8646 66.243Z" fill="#E6E6E6"/>
<path d="M76.8733 69.1928C76.7247 69.1208 76.554 69.1082 76.3964 69.1576C76.2388 69.207 76.1063 69.3147 76.0261 69.4584C75.93 69.7306 76.1663 70.0516 76.5428 70.1776L108.7 80.8905C108.849 80.9625 109.02 80.9751 109.177 80.9257C109.335 80.8763 109.467 80.7686 109.548 80.6249C109.644 80.3537 109.407 80.0317 109.031 79.9057L76.8733 69.1928Z" fill="#E6E6E6"/>
<path d="M92.8915 33.2243C94.6194 33.2243 96.0201 31.8314 96.0201 30.1131C96.0201 28.3949 94.6194 27.002 92.8915 27.002C91.1637 27.002 89.763 28.3949 89.763 30.1131C89.763 31.8314 91.1637 33.2243 92.8915 33.2243Z" fill="#FF9999"/>
<path d="M100.406 30.4285C100.276 30.3904 100.137 30.4038 100.017 30.4658C99.8975 30.5278 99.8065 30.6337 99.7636 30.761C99.7206 30.8884 99.7291 31.0274 99.7871 31.1487C99.8451 31.27 99.9481 31.3642 100.075 31.4114L123.382 39.1755C123.448 39.2 123.518 39.2111 123.588 39.2082C123.658 39.2053 123.727 39.1883 123.79 39.1584C123.853 39.1285 123.91 39.0862 123.956 39.034C124.003 38.9818 124.038 38.9209 124.061 38.8549C124.083 38.7888 124.091 38.7189 124.086 38.6495C124.08 38.58 124.061 38.5123 124.029 38.4505C123.996 38.3887 123.952 38.334 123.898 38.2897C123.844 38.2454 123.781 38.2123 123.714 38.1926L100.406 30.4285Z" fill="#E6E6E6"/>
<path d="M99.4108 33.3789C99.3452 33.3544 99.2753 33.3432 99.2053 33.3462C99.1353 33.3491 99.0666 33.3661 99.0033 33.396C98.9401 33.4259 98.8835 33.4682 98.837 33.5204C98.7905 33.5725 98.7551 33.6335 98.7328 33.6995C98.7105 33.7656 98.7019 33.8355 98.7073 33.9049C98.7128 33.9744 98.7323 34.0421 98.7647 34.1039C98.797 34.1657 98.8416 34.2204 98.8956 34.2647C98.9497 34.309 99.0122 34.3421 99.0794 34.3618L109.109 37.7051C109.174 37.7296 109.244 37.7407 109.314 37.7378C109.384 37.7348 109.453 37.7179 109.516 37.688C109.579 37.6581 109.636 37.6158 109.682 37.5636C109.729 37.5115 109.764 37.4505 109.787 37.3844C109.809 37.3184 109.818 37.2485 109.812 37.179C109.807 37.1096 109.787 37.0419 109.755 36.9801C109.722 36.9183 109.678 36.8636 109.624 36.8193C109.57 36.7749 109.507 36.7419 109.44 36.7222L99.4108 33.3789Z" fill="#E6E6E6"/>
<path d="M97.167 54.9078L80.7712 49.4458L86.8688 44.0851C86.9781 43.9889 87.1109 43.9231 87.2539 43.8942C87.3969 43.8653 87.545 43.8743 87.6834 43.9204C87.8217 43.9665 87.9454 44.048 88.042 44.1567C88.1387 44.2655 88.2048 44.3976 88.2338 44.5398L88.9254 47.928L93.3545 44.0335C93.4916 43.9131 93.6581 43.8308 93.8374 43.7948C94.0167 43.7589 94.2023 43.7706 94.3756 43.8287C94.5489 43.8868 94.7037 43.9893 94.8244 44.1259C94.9452 44.2625 95.0276 44.4283 95.0633 44.6067L97.167 54.9078ZM81.3735 49.3245L96.7597 54.4502L94.7608 44.6649C94.7352 44.5396 94.6769 44.4231 94.5917 44.3272C94.5065 44.2314 94.3974 44.1595 94.2755 44.1188C94.1535 44.0782 94.0229 44.0702 93.8968 44.0956C93.7707 44.121 93.6536 44.179 93.5572 44.2637L88.7294 48.5078L87.9312 44.6009C87.9134 44.5105 87.8718 44.4263 87.8106 44.3571C87.7495 44.2879 87.6709 44.2361 87.583 44.207C87.4951 44.1778 87.401 44.1724 87.3102 44.1913C87.2195 44.2101 87.1355 44.2526 87.0667 44.3144L81.3735 49.3245Z" fill="#E6E6E6"/>
<path d="M97.1813 54.9107L79.6993 49.0838C79.507 49.0186 79.3485 48.8802 79.2585 48.6991C79.1684 48.5179 79.1543 48.3087 79.219 48.1171L82.4848 38.4168C82.5505 38.2256 82.6896 38.068 82.8717 37.9785C83.0539 37.889 83.2643 37.8749 83.457 37.9392L100.939 43.7661C101.131 43.8314 101.29 43.9697 101.38 44.1508C101.47 44.332 101.484 44.5412 101.419 44.7328L98.1534 54.4331C98.0878 54.6243 97.9487 54.7819 97.7666 54.8715C97.5844 54.961 97.374 54.9751 97.1813 54.9107ZM83.3619 38.2287C83.2463 38.1901 83.1201 38.1986 83.0109 38.2523C82.9016 38.306 82.8182 38.4005 82.7788 38.5152L79.5129 48.2155C79.4741 48.3304 79.4826 48.4559 79.5366 48.5646C79.5906 48.6732 79.6857 48.7562 79.8011 48.7953L97.2832 54.6222C97.3987 54.6608 97.5249 54.6523 97.6342 54.5986C97.7434 54.5449 97.8269 54.4504 97.8662 54.3357L101.132 44.6354C101.171 44.5205 101.162 44.395 101.108 44.2863C101.054 44.1777 100.959 44.0947 100.844 44.0555L83.3619 38.2287Z" fill="#E6E6E6"/>
<path d="M72.9974 81.2937C72.8679 81.2557 72.7285 81.269 72.6087 81.3311C72.4889 81.3931 72.398 81.4989 72.355 81.6263C72.3121 81.7537 72.3205 81.8926 72.3785 82.0139C72.4365 82.1352 72.5396 82.2294 72.6661 82.2767L82.6952 85.6199C82.8264 85.6636 82.9697 85.6537 83.0935 85.5924C83.2174 85.531 83.3116 85.4233 83.3556 85.2928C83.3995 85.1623 83.3895 85.0199 83.3279 84.8967C83.2662 84.7735 83.1578 84.6798 83.0266 84.6361L72.9974 81.2937Z" fill="#E6E6E6"/>
<path d="M72.0206 84.1913C71.955 84.1668 71.8851 84.1557 71.8151 84.1587C71.7451 84.1616 71.6763 84.1785 71.6131 84.2085C71.5498 84.2384 71.4932 84.2807 71.4467 84.3328C71.4002 84.385 71.3648 84.4459 71.3425 84.512C71.3203 84.5781 71.3116 84.6479 71.3171 84.7174C71.3226 84.7869 71.3421 84.8545 71.3744 84.9164C71.4068 84.9782 71.4513 85.0328 71.5054 85.0772C71.5595 85.1215 71.622 85.1545 71.6892 85.1743L81.7184 88.5176C81.8479 88.5557 81.9872 88.5423 82.1071 88.4803C82.2269 88.4182 82.3178 88.3124 82.3607 88.185C82.4037 88.0577 82.3953 87.9187 82.3373 87.7974C82.2793 87.6761 82.1762 87.5819 82.0497 87.5346L72.0206 84.1913Z" fill="#E6E6E6"/>
<path d="M100.512 103.901C100.641 103.939 100.78 103.926 100.9 103.864C101.02 103.802 101.111 103.696 101.154 103.569C101.197 103.441 101.189 103.302 101.131 103.181C101.073 103.06 100.969 102.966 100.843 102.918L90.8139 99.575C90.6844 99.5369 90.545 99.5503 90.4252 99.6123C90.3054 99.6743 90.2144 99.7802 90.1715 99.9076C90.1285 100.035 90.1369 100.174 90.195 100.295C90.253 100.416 90.356 100.511 90.4825 100.558L100.512 103.901Z" fill="#E6E6E6"/>
<path d="M101.488 101.004C101.553 101.028 101.623 101.039 101.693 101.036C101.763 101.034 101.832 101.017 101.895 100.987C101.958 100.957 102.015 100.914 102.061 100.862C102.108 100.81 102.143 100.749 102.166 100.683C102.188 100.617 102.196 100.547 102.191 100.478C102.186 100.408 102.166 100.341 102.134 100.279C102.101 100.217 102.057 100.162 102.003 100.118C101.949 100.074 101.886 100.041 101.819 100.021L91.7897 96.6776C91.6602 96.6395 91.5209 96.6528 91.401 96.7148C91.2812 96.7768 91.1903 96.8827 91.1473 97.0101C91.1044 97.1374 91.1128 97.2764 91.1708 97.3977C91.2288 97.519 91.3319 97.6132 91.4584 97.6605L101.488 101.004Z" fill="#E6E6E6"/>
<path d="M117.151 54.6045C117.217 54.629 117.287 54.6401 117.357 54.6372C117.427 54.6343 117.496 54.6173 117.559 54.5874C117.622 54.5575 117.679 54.5152 117.725 54.463C117.772 54.4109 117.807 54.3499 117.829 54.2839C117.852 54.2178 117.86 54.1479 117.855 54.0785C117.849 54.009 117.83 53.9413 117.798 53.8795C117.765 53.8177 117.721 53.763 117.666 53.7187C117.612 53.6744 117.55 53.6413 117.483 53.6216L107.454 50.2783C107.388 50.2538 107.318 50.2426 107.248 50.2456C107.178 50.2485 107.109 50.2655 107.046 50.2954C106.983 50.3253 106.926 50.3676 106.88 50.4198C106.833 50.4719 106.798 50.5328 106.776 50.5989C106.753 50.665 106.745 50.7349 106.75 50.8043C106.756 50.8738 106.775 50.9415 106.807 51.0033C106.84 51.0651 106.884 51.1198 106.938 51.1641C106.992 51.2084 107.055 51.2414 107.122 51.2612L117.151 54.6045Z" fill="#E6E6E6"/>
<path d="M116.319 56.9238C116.384 56.9483 116.454 56.9595 116.524 56.9565C116.594 56.9536 116.663 56.9367 116.726 56.9067C116.789 56.8768 116.846 56.8345 116.892 56.7824C116.939 56.7302 116.974 56.6693 116.997 56.6032C117.019 56.5371 117.027 56.4673 117.022 56.3978C117.017 56.3283 116.997 56.2606 116.965 56.1988C116.932 56.137 116.888 56.0823 116.834 56.038C116.78 55.9937 116.717 55.9607 116.65 55.9409L106.621 52.5976C106.555 52.5731 106.485 52.562 106.415 52.5649C106.345 52.5679 106.277 52.5848 106.213 52.6147C106.15 52.6447 106.093 52.687 106.047 52.7391C106 52.7913 105.965 52.8522 105.943 52.9183C105.92 52.9843 105.912 53.0542 105.917 53.1237C105.923 53.1932 105.942 53.2608 105.975 53.3226C106.007 53.3845 106.052 53.4392 106.106 53.4835C106.16 53.5278 106.222 53.5608 106.289 53.5805L116.319 56.9238Z" fill="#E6E6E6"/>
<path d="M32.3266 51.2116C35.256 51.2116 37.6307 48.85 37.6307 45.9369C37.6307 43.0237 35.256 40.6621 32.3266 40.6621C29.3971 40.6621 27.0224 43.0237 27.0224 45.9369C27.0224 48.85 29.3971 51.2116 32.3266 51.2116Z" fill="#9F616A"/>
<path d="M29.2604 46.589C29.6813 46.6065 30.0994 46.6641 30.5092 46.7609C31.2608 46.8363 32.0147 46.6414 32.6343 46.2115C33.2539 45.7816 33.6981 45.1453 33.8865 44.4178C33.913 44.223 33.9714 44.0339 34.0594 43.858C34.1992 43.6885 34.3865 43.5639 34.5974 43.5002C34.8084 43.4364 35.0337 43.4363 35.2447 43.4998C35.6635 43.6334 36.0914 43.7368 36.5251 43.8093C36.8665 43.8104 37.2021 43.7228 37.499 43.5553C37.7958 43.3877 38.0435 43.146 38.2176 42.8541C38.5594 42.2637 38.7046 41.581 38.6326 40.9035L38.307 41.2426C38.1749 40.9644 38.124 40.655 38.16 40.3495C37.9876 40.3038 37.8062 40.3029 37.6333 40.3469C37.4604 40.3909 37.3018 40.4782 37.1726 40.6007C36.8844 40.6313 37.1024 40.0715 36.8892 39.8786C36.7855 39.8155 36.662 39.7927 36.5424 39.8145C35.9359 39.72 35.3782 39.4273 34.9575 38.9825C34.124 38.3364 33.1494 37.8943 32.1124 37.6921C31.4252 37.5286 30.7056 37.5617 30.0366 37.7876C29.5091 38.0231 29.033 38.359 28.6351 38.7762C27.5708 39.721 26.761 40.9157 26.2798 42.2513C25.9339 43.3544 25.9242 44.5348 26.252 45.6433C26.4239 46.2165 26.9407 48.1909 27.6928 48.2368C28.6476 48.3017 28.0761 46.6597 29.2604 46.589Z" fill="#2F2E41"/>
<path d="M21.9151 88.1717C22.2092 87.9711 22.4554 87.7088 22.6366 87.4034C22.8178 87.098 22.9294 86.7568 22.9636 86.4038C22.9979 86.0508 22.9539 85.6947 22.8348 85.3604C22.7157 85.0262 22.5244 84.722 22.2743 84.4692L23.2205 63.4619L18.4023 63.9997L18.6818 84.5485C18.2833 84.9948 18.0631 85.571 18.0629 86.1679C18.0628 86.7648 18.2827 87.341 18.681 87.7875C19.0794 88.234 19.6286 88.5198 20.2245 88.5908C20.8205 88.6618 21.422 88.513 21.9151 88.1726V88.1717Z" fill="#A0616A"/>
<path d="M30.7051 123.728L33.4475 124.206L36.1582 113.915L32.5648 113.207L30.7051 123.728Z" fill="#A0616A"/>
<path d="M38.2695 127.669L29.6504 126.155L30.2383 122.843L35.5271 123.772C35.9644 123.849 36.3822 124.011 36.7566 124.248C37.1311 124.486 37.4548 124.794 37.7094 125.156C37.9639 125.518 38.1443 125.926 38.2403 126.357C38.3362 126.788 38.3458 127.234 38.2685 127.669H38.2695Z" fill="#2F2E41"/>
<path d="M23.1792 125.094H25.9648L27.2894 114.414H23.1801L23.1792 125.094Z" fill="#A0616A"/>
<path d="M31.3295 127.664H22.5788V124.302H27.9483C28.8451 124.302 29.7051 124.656 30.3392 125.287C30.9733 125.917 31.3295 126.772 31.3295 127.664Z" fill="#2F2E41"/>
<path d="M34.7913 121.265C34.748 121.265 34.7047 121.263 34.6617 121.258L31.3843 120.989C31.0923 120.955 30.826 120.807 30.6439 120.578C30.4618 120.348 30.3787 120.056 30.4131 119.766C30.4131 119.748 30.4131 119.729 30.4208 119.71L33.6752 103.748L31.6301 93.0262C31.613 92.9395 31.565 92.8619 31.495 92.8075C31.425 92.7531 31.3376 92.7256 31.2489 92.73C31.1601 92.7344 31.076 92.7705 31.0118 92.8315C30.9476 92.8926 30.9076 92.9746 30.8992 93.0625L27.8878 120.305C27.8597 120.592 27.7206 120.857 27.4998 121.044C27.279 121.231 26.9938 121.326 26.7044 121.307L23.6172 121.193C23.3467 121.174 23.0927 121.057 22.903 120.864C22.7133 120.671 22.6011 120.416 22.5875 120.147L22.8343 87.227L38.841 85.2373L39.9591 102.41V102.428L35.872 120.427C35.8124 120.667 35.6734 120.88 35.4775 121.032C35.2815 121.184 35.0399 121.266 34.7913 121.265Z" fill="#2F2E41"/>
<path d="M33.3707 89.7336C32.498 89.7391 31.6419 89.4958 30.904 89.0325C28.2019 87.3532 25.1329 88.0209 23.5442 88.5683C23.3862 88.6234 23.2177 88.6423 23.0514 88.6234C22.885 88.6046 22.7251 88.5485 22.5836 88.4593C22.444 88.3722 22.326 88.2548 22.2385 88.1158C22.151 87.9768 22.0963 87.82 22.0784 87.657L19.19 61.9949C18.9438 59.9276 19.4265 57.8394 20.5559 56.0866C21.6852 54.3337 23.3912 53.0249 25.3827 52.3834C25.5357 52.3356 25.6914 52.2904 25.8495 52.2478C27.1175 51.9054 28.4455 51.8437 29.74 52.067C31.0345 52.2903 32.264 52.7932 33.3419 53.5402C34.4394 54.2946 35.3573 55.279 36.0311 56.4242C36.7049 57.5694 37.1181 58.8474 37.2417 60.1685L39.6748 86.0016C39.6912 86.1688 39.6683 86.3376 39.608 86.4945C39.5476 86.6515 39.4515 86.7924 39.3271 86.9062C38.4712 87.6923 35.9968 89.7336 33.3707 89.7336Z" fill="#00CCCC"/>
<path d="M24.572 67.4991L18.0537 66.7865C17.8682 66.7662 17.6892 66.7064 17.529 66.6111C17.3689 66.5159 17.2312 66.3874 17.1255 66.2345C17.0197 66.0816 16.9484 65.9077 16.9163 65.7249C16.8842 65.5421 16.8921 65.3545 16.9394 65.175L18.5983 58.8858C18.7002 57.9401 19.1757 57.0734 19.9202 56.4763C20.6647 55.8792 21.6173 55.6007 22.5683 55.7021C23.5193 55.8034 24.3909 56.2763 24.9913 57.0166C25.5917 57.757 25.8717 58.7043 25.7698 59.65V59.6901L26.0157 66.1665C26.0226 66.352 25.9893 66.5369 25.9179 66.7084C25.8465 66.8799 25.7388 67.0341 25.602 67.1605C25.4653 67.2869 25.3027 67.3825 25.1255 67.4407C24.9482 67.499 24.7604 67.5186 24.5749 67.4981L24.572 67.4991Z" fill="#00CCCC"/>
<path d="M39.6479 87.2689C39.9153 87.0342 40.1278 86.7442 40.2703 86.4191C40.4128 86.094 40.4819 85.7418 40.4727 85.3872C40.4636 85.0327 40.3764 84.6845 40.2173 84.3671C40.0582 84.0497 39.831 83.7709 39.5518 83.5502L37.9458 62.583L33.2247 63.6395L35.9959 84.0583C35.6529 84.5492 35.5031 85.1483 35.5749 85.7417C35.6467 86.3352 35.935 86.8818 36.3853 87.2778C36.8355 87.6738 37.4163 87.8916 38.0173 87.89C38.6184 87.8884 39.1979 87.6673 39.646 87.2689H39.6479Z" fill="#A0616A"/>
<path d="M31.4179 66.1788C31.2811 66.0524 31.1734 65.8981 31.1021 65.7265C31.0308 65.5548 30.9976 65.3699 31.0048 65.1844L31.2507 58.7079C31.1976 58.24 31.2377 57.7662 31.3687 57.3137C31.4997 56.8611 31.7191 56.4387 32.0143 56.0704C32.3095 55.7022 32.6748 55.3954 33.0892 55.1675C33.5036 54.9396 33.9591 54.7952 34.4297 54.7423C34.9003 54.6895 35.3767 54.7294 35.8318 54.8597C36.2868 54.99 36.7116 55.2081 37.0819 55.5017C37.4522 55.7953 37.7608 56.1585 37.9899 56.5706C38.219 56.9827 38.3643 57.4357 38.4174 57.9037L40.0763 64.1928C40.1237 64.3724 40.1316 64.5599 40.0995 64.7428C40.0674 64.9256 39.996 65.0994 39.8903 65.2523C39.7845 65.4052 39.6469 65.5337 39.4867 65.629C39.3265 65.7242 39.1476 65.784 38.9621 65.8043L32.4437 66.5169C32.2583 66.5372 32.0707 66.5176 31.8937 66.4592C31.7166 66.4008 31.5543 66.3052 31.4179 66.1788Z" fill="#00CCCC"/>
<path d="M123.017 127.668H0V127.999H123.017V127.668Z" fill="#CACACA"/>
</g>
<defs>
<clipPath id="clip0_915_9907">
<rect width="141" height="128" fill="white"/>
</clipPath>
</defs>
</svg>
